<svg id="a" height="512" viewBox="0 0 512 512" width="512" xmlns="http://www.w3.org/2000/svg"><path d="m432.6152 265.231c-2.3831 0-4.7432.1381-7.0796.3965l21.2905-23.2261c1.3525-1.4756 2.1025-3.4043 2.1025-5.4058v-24c0-1.9097-.6836-3.7563-1.9258-5.2065l-80.417-88.4502c-1.501-1.5005-3.5352-2.3433-5.6572-2.3433h-32c-3.2354 0-6.1523 1.9492-7.3906 4.9385s-.5547 6.4302 1.7334 8.7183l28.5039 28.5039-10.343 31.0291-22.8464-22.8464c-1.501-1.5005-3.5352-2.3433-5.6572-2.3433h-24c-4.418 0-8 3.5815-8 8s3.582 8 8 8h15.1768l11.6514 6.1416 1.926 1.9261c-.9243-.0387-1.8489-.0677-2.7737-.0677-13.3486 0-26.2744 3.9136-37.3789 11.3179l-32.623 21.7485-20.0205 10.0103c-6.4414 3.2207-13.6533 4.9233-20.8555 4.9233-10.1816 0-19.7529-3.9648-26.9531-11.1646-8.2773-8.2769-19.2822-12.8354-30.9883-12.8354h-9.1611v-24c0-2.1216-.8428-4.1567-2.3428-5.6567l-8-8c-1.501-1.5005-3.5352-2.3433-5.6572-2.3433h-72.0001c-2.1221 0-4.1562.8428-5.6572 2.3433l-32 31.9999c-1.5 1.5-2.3428 3.5352-2.3428 5.6567v24c0 3.2002 1.9072 6.0928 4.8486 7.353l43.7275 18.7405-29.5742 23.6594c-1.8975 1.5181-3.002 3.8169-3.002 6.2471v24c0 1.2155.2791 2.363.7639 3.3947.0098.024.0142.0459.0261.0707l12.9043 26.8511c1.3115 2.728 4.0498 4.4829 7.0762 4.5337l8.925.15c9.533 24.063 32.7847 40.0043 58.9197 40.0043 25.3052 0 48.1008-15.1094 58.1055-38.0376l4.3555.0732 34.6514 13.3276c.917.3525 1.8896.5332 2.8721.5332h.0303l147.4004-.5532c2.5283-.0098 4.9033-1.2134 6.4053-3.2476 1.502-2.0337 1.9541-4.6577 1.2197-7.0767l-6.6743-21.9814 7.353-8.0215c-.0129.5327-.0322 1.0645-.0322 1.5996 0 34.9502 28.4346 63.3843 63.3848 63.3843s63.3848-28.4341 63.3848-63.3843-28.4346-63.3848-63.3848-63.3848zm-83.2061 59.7646h-38.7141l-12.8884-38.665 35.2393-49.335h65.8826l3.5999 4.7998c1.5117 2.0146 3.8828 3.2002 6.4004 3.2002h13.8142l-73.3337 80zm83.5195-109.0405v13.0405h-20l-12-16h29.4634zm-26.7236 70.7603 25.0322 30.9131c1.8779 2.3193 1.5195 5.7339-.7998 7.6118-1.123.9092-2.5332 1.3257-3.9707 1.1763-1.4375-.1514-2.7305-.853-3.6406-1.9766l-24.0156-29.658 7.3945-8.0667zm18.5889 55.6133c.7627.0806 1.5225.1201 2.2783.1201 4.8848-.0005 9.5859-1.6577 13.4336-4.7739 8.4299-6.8262 10.293-18.7749 4.7817-27.7888 5.9995 4.0723 9.9497 10.9482 9.9497 18.7297 0 12.4736-10.1484 22.6216-22.6221 22.6216-10.2048 0-18.8491-6.7938-21.6572-16.0948 3.5613 4.0638 8.4312 6.6183 13.8359 7.1862zm-67.1787-209.333 16 16h-9.373l-16-16zm-71.21 80.6304c8.4688-5.646 18.3252-8.6304 28.5039-8.6304 7.9365 0 15.8828 1.876 22.9805 5.4248l3.4609 1.7305c2.0742 1.0376 4.498 1.124 6.6396.2358 2.1426-.8877 3.7949-2.6611 4.5283-4.8613l14.1758-42.5298h22.5547l27.4287 32h-31.749c-3.0303 0-5.7998 1.7119-7.1553 4.4224-1.3555 2.71-1.0625 5.9536.7549 8.3774l8.4001 11.2002h-57.9998c-2.584 0-5.0078 1.2476-6.5098 3.3501l-40 56c-1.4873 2.0825-1.8887 4.7515-1.0801 7.1797l12.49 37.4702h-16.6541l-4.4854-17.9404c-1.0703-4.2856-5.4082-6.8901-9.7012-5.8208-4.2861 1.0718-6.8926 5.415-5.8203 9.7017l3.5151 14.0596h-13.988l-6.1765-18.5298c-1.3984-4.1914-5.9229-6.4575-10.1201-5.0596-4.1914 1.397-6.4561 5.9277-5.0596 10.1191l3.8682 11.6044-37.5439-13.6527c-.877-.3184-15.7864-.4814-15.7864-.4814l7.7083-11.5625c.8979-1.3464 1.3301-2.8936 1.3303-4.4375h40.0134c2.374 0 4.626-1.0547 6.1455-2.8784l40-48c1.5645-1.8774 2.1855-4.3672 1.6846-6.7598-.5-2.3921-2.0664-4.4243-4.252-5.5171l-3.6699-1.835 21.5684-14.3794zm-120.6406 23.519c10.2217 10.2217 23.8115 15.8506 38.2666 15.8506 9.6729 0 19.3594-2.2866 28.0117-6.6128l16.8857-8.4429 3.3877 1.6938-31.1348 37.3618s-45.9014.176-46.0879.2197l-15.7646-21.0195c-1.5117-2.0146-3.8818-3.2002-6.4004-3.2002h-16v-24h9.1611c7.4316 0 14.4199 2.894 19.6748 8.1494zm-113.5225-48.1494h65.3731l3.3135 3.314v20.686h-92.686l23.9995-24zm-27.3135 40h96.0001v24h-46.3584l-49.6416-21.2754v-2.7246zm16 67.8452 34.8066-27.8452h73.1934l18.2041 24.272-10.4854 15.728h-115.7186v-12.1548zm72.6152 79.1592c-17.198 0-32.7307-9.2281-41.0654-23.7042l81.293 1.3662c-8.5266 13.6688-23.6555 22.338-40.2275 22.338zm101.4551-24.1089-34.5723-13.2974c-.875-.3364-1.8008-.5161-2.7373-.5322l-126.7842-2.1309-5.2559-10.9351h141.8703l42.6748 15.5186c.877.3184 1.8018.4814 2.7344.4814h114.0684l3.1543 10.3882-135.1523.5073zm217.6162 24.1089c-26.1279 0-47.3848-21.2563-47.3848-47.3843 0-6.9622 1.4854-13.6726 4.3325-19.8293l6.3354 7.824c-1.2637 3.8573-1.9043 7.8796-1.9043 12.0054 0 21.2959 17.3252 38.6216 38.6211 38.6216s38.6221-17.3257 38.6221-38.6216-17.3262-38.6221-38.6221-38.6221c-1.0217 0-2.042.0537-3.0596.1338l-6.4307-7.9414c3.0974-.6287 6.2659-.9551 9.4902-.9551 26.1279 0 47.3848 21.2568 47.3848 47.3848s-21.2568 47.3843-47.3848 47.3843z"/><path d="m120.9287 284.9956h-24c-4.418 0-8 3.5815-8 8s3.582 8 8 8h24c4.418 0 8-3.5815 8-8s-3.582-8-8-8z"/></svg>