<svg version="1.0" xmlns="http://www.w3.org/2000/svg" xmlns:xlink="http://www.w3.org/1999/xlink" x="0" y="0" width="2400" height="976.7958610289819" viewBox="87.13009735107421 91.27210327148437 165.7397900390625 67.45580871582031" preserveAspectRatio="xMidYMid meet" color-interpolation-filters="sRGB"><g><defs><linearGradient id="92" x1="0%" y1="0%" x2="100%" y2="0%"><stop offset="0%" stop-color="#fa71cd"></stop> <stop offset="100%" stop-color="#9b59b6"></stop></linearGradient><linearGradient id="93" x1="0%" y1="0%" x2="100%" y2="0%"><stop offset="0%" stop-color="#f9d423"></stop> <stop offset="100%" stop-color="#f83600"></stop></linearGradient><linearGradient id="94" x1="0%" y1="0%" x2="100%" y2="0%"><stop offset="0%" stop-color="#0064d2"></stop> <stop offset="100%" stop-color="#1cb0f6"></stop></linearGradient><linearGradient id="95" x1="0%" y1="0%" x2="100%" y2="0%"><stop offset="0%" stop-color="#f00978"></stop> <stop offset="100%" stop-color="#3f51b1"></stop></linearGradient><linearGradient id="96" x1="0%" y1="0%" x2="100%" y2="0%"><stop offset="0%" stop-color="#7873f5"></stop> <stop offset="100%" stop-color="#ec77ab"></stop></linearGradient><linearGradient id="97" x1="0%" y1="0%" x2="100%" y2="0%"><stop offset="0%" stop-color="#f9d423"></stop> <stop offset="100%" stop-color="#e14fad"></stop></linearGradient><linearGradient id="98" x1="0%" y1="0%" x2="100%" y2="0%"><stop offset="0%" stop-color="#009efd"></stop> <stop offset="100%" stop-color="#2af598"></stop></linearGradient><linearGradient id="99" x1="0%" y1="0%" x2="100%" y2="0%"><stop offset="0%" stop-color="#ffcc00"></stop> <stop offset="100%" stop-color="#00b140"></stop></linearGradient><linearGradient id="100" x1="0%" y1="0%" x2="100%" y2="0%"><stop offset="0%" stop-color="#d51007"></stop> <stop offset="100%" stop-color="#ff8177"></stop></linearGradient><linearGradient id="102" x1="0%" y1="0%" x2="100%" y2="0%"><stop offset="0%" stop-color="#a2b6df"></stop> <stop offset="100%" stop-color="#0c3483"></stop></linearGradient><linearGradient id="103" x1="0%" y1="0%" x2="100%" y2="0%"><stop offset="0%" stop-color="#7ac5d8"></stop> <stop offset="100%" stop-color="#eea2a2"></stop></linearGradient><linearGradient id="104" x1="0%" y1="0%" x2="100%" y2="0%"><stop offset="0%" stop-color="#00ecbc"></stop> <stop offset="100%" stop-color="#007adf"></stop></linearGradient><linearGradient id="105" x1="0%" y1="0%" x2="100%" y2="0%"><stop offset="0%" stop-color="#b88746"></stop> <stop offset="100%" stop-color="#fdf5a6"></stop></linearGradient></defs><g fill="#f75835" class="icon-text-wrapper icon-svg-group iconsvg" transform="translate(88.75499725341797,92.89699935913086)"><g class="iconsvg-imagesvg" transform="translate(0,14.213272094726562)"><g><rect fill="#f75835" fill-opacity="0" stroke-width="2" x="0" y="0" width="60" height="35.77945543668825" class="image-rect"></rect> <svg x="0" y="0" width="60" height="35.77945543668825" filtersec="colorsb8018167510" class="image-svg-svg primary" style="overflow: visible;"><svg xmlns="http://www.w3.org/2000/svg" viewBox="0.7838699999999998 -0.21500000000000008 709.07764 424.45499"><g stroke-width="2" fill="none" stroke-linecap="butt"><path stroke="#5d0d0d" d="M 123.96 132.51 Q 119.73 136.40 116.52 136.36 Q 106.25 136.25 102.04 136.49 Q 92.86 137.03 88.33 144.28 C 87.10 146.25 86.70 148.85 87.71 150.91 A 0.81 0.81 0.0 0 0 88.84 151.26 Q 98.39 145.77 109.44 144.92 Q 122.83 143.90 124.06 143.81 Q 131.78 143.23 136.95 144.07 Q 152.52 146.57 165.77 154.86 C 172.68 159.17 178.17 162.78 183.33 168.70 A 0.81 0.81 0.0 0 0 184.66 168.55 Q 186.49 165.15 188.54 161.86 C 191.31 157.43 194.24 151.37 197.07 146.87 C 201.15 140.40 203.67 135.00 208.26 127.41 Q 212.42 120.52 214.85 116.26 Q 222.16 103.45 231.27 89.25 C 232.18 87.84 232.51 86.94 231.47 85.52 Q 223.77 74.98 221.55 62.77 C 220.30 55.85 220.96 47.19 220.59 40.54 C 220.25 34.48 217.21 27.97 211.24 26.32 A 1.88 1.87 31.9 0 0 209.50 26.72 Q 202.37 33.04 195.98 37.21 C 190.86 40.56 187.41 44.76 182.10 49.55 C 176.75 54.38 173.05 58.51 167.98 63.67 C 165.49 66.20 163.28 69.34 161.08 71.91 C 156.21 77.59 153.64 82.12 147.94 90.28 C 144.07 95.82 139.85 99.81 135.10 103.35 Q 129.21 107.74 126.31 110.66 C 124.40 112.59 124.02 114.10 123.88 116.82 Q 123.53 123.91 124.32 130.04 Q 124.56 131.95 123.96 132.51"></path><path stroke="#363535" d="M265.69 60.14Q265.46 60.07 265.19 60.16 264.92 60.25 264.79 60.43 262.92 62.96 260.46 64.91C258.66 66.33 256.17 69.51 254.8 71.68Q249.6 79.93 247.8 82.58C242.89 89.79 238.35 97.66 233.76 105.29Q232.55 107.3 228.36 114.74C224.27 122.01 219.47 128.2 216.19 134.67Q214.96 137.08 210.02 145.53C208.7 147.79 206.4 150.48 205.02 153.13Q202.62 157.78 199.77 162.17C198.32 164.41 197.4 167.13 195.85 169.27 191.6 175.12 188.4 181.8 184.57 188.23Q182.64 191.48 180.69 194.69 179.86 196.06 175.14 204.51 172.9 208.51 170.81 211.57C166.21 218.26 162.39 225.89 158.49 232Q154.79 237.8 150.74 245.51C145.95 254.65 142.32 261.11 139.01 267.56Q136.14 273.16 132.4 279.15C129.72 283.44 126.37 291.45 122.86 297.34Q121.17 300.18 119.51 303.38M127.09 309Q133.62 300.73 138.6 291.44 141.86 285.36 144.61 281.11 149.25 273.95 153.04 266.3C154.45 263.45 156.93 260.42 158.08 258.06Q161.53 250.91 165.73 242.52C167.63 238.72 169.31 236.63 172.2 232.47L180.61 217.82Q180.94 217.24 184.83 211.04 186.11 209 188.46 203.91 189.75 201.12 192.9 196.18 197.86 188.4 203.34 178.09C205.92 173.23 209.17 169.31 211.36 164.87Q213.22 161.09 219.38 149.68C221.32 146.08 223.74 143.6 225.54 139.97Q229.33 132.37 234.46 124.21C237.22 119.82 239.6 114.81 242.09 110.99Q245.07 106.41 247.72 101.04 253.84 88.65 260.56 77.61 262.42 74.56 264.54 71.9 267.94 67.63 269.3 66.79 273.22 64.34 277.2 61.38"></path><path stroke="#363535" d="M 262.2155 81.9709 A 0.73 0.36 124.6 0 0 262.9263 81.5744 A 0.73 0.36 124.6 0 0 263.0445 80.7691 A 0.73 0.36 124.6 0 0 262.3337 81.1656 A 0.73 0.36 124.6 0 0 262.2155 81.9709"></path><path stroke="#363535" d="M 260.2487 85.2700 A 0.94 0.32 118.0 0 0 260.9725 84.5902 A 0.94 0.32 118.0 0 0 261.1313 83.6100 A 0.94 0.32 118.0 0 0 260.4075 84.2898 A 0.94 0.32 118.0 0 0 260.2487 85.2700"></path><path stroke="#363535" d="M 258.7220 87.5001 A 1.20 0.30 124.4 0 0 259.6475 86.6795 A 1.20 0.30 124.4 0 0 260.0780 85.5199 A 1.20 0.30 124.4 0 0 259.1525 86.3405 A 1.20 0.30 124.4 0 0 258.7220 87.5001"></path><path stroke="#363535" d="M 256.2112 92.2456 A 1.03 0.27 119.6 0 0 256.9548 91.4834 A 1.03 0.27 119.6 0 0 257.2288 90.4544 A 1.03 0.27 119.6 0 0 256.4852 91.2166 A 1.03 0.27 119.6 0 0 256.2112 92.2456"></path><path stroke="#5d0d0d" d="M 314.77 180.62 C 317.25 178.20 319.27 178.09 322.37 179.34 Q 323.90 179.96 325.72 181.50 Q 337.65 191.64 342.48 195.33 Q 352.11 202.71 364.82 205.74 C 366.96 206.25 369.47 205.75 371.61 205.58 Q 372.82 205.48 373.76 206.23 C 379.34 210.71 384.13 215.08 388.41 220.61 Q 389.09 221.49 393.61 227.06 Q 399.25 234.02 404.22 242.95 C 406.55 247.14 409.77 250.90 412.30 255.37 Q 417.42 264.43 417.45 264.49 Q 424.41 275.88 430.80 287.76 A 1.58 1.57 -12.6 0 0 432.12 288.59 Q 444.06 289.14 453.53 289.43 C 455.20 289.48 457.04 289.76 458.21 288.46 Q 470.84 274.55 482.17 265.16 Q 497.02 252.83 498.34 251.71 C 503.86 247.04 509.59 243.02 513.96 238.97 Q 514.03 238.91 520.03 234.14 C 523.68 231.24 525.10 229.05 527.40 225.16 Q 532.49 216.57 536.58 206.77 Q 539.55 199.66 542.03 194.64 Q 546.03 186.56 547.96 182.72 Q 548.02 182.61 552.69 172.58 Q 555.76 165.98 560.55 159.05 Q 565.14 152.39 567.22 151.15 Q 575.91 145.96 587.75 145.34 Q 612.39 144.05 617.74 143.95 C 622.28 143.87 627.14 143.33 631.91 143.19 A 0.70 0.69 -0.9 0 0 632.59 142.50 L 632.69 118.60 A 0.49 0.48 78.7 0 0 632.02 118.15 C 627.64 120.01 624.07 121.60 619.61 122.63 C 610.55 124.73 600.65 128.24 592.17 129.39 C 581.53 130.83 574.79 132.29 565.24 132.35 Q 543.02 132.47 538.21 132.46 C 531.57 132.43 527.14 132.14 523.28 137.03 C 513.27 149.72 507.20 156.73 501.59 163.41 C 496.72 169.20 491.33 173.21 484.43 177.73 C 482.08 179.28 479.02 180.17 477.26 180.93 Q 474.05 182.32 471.65 182.68 C 463.38 183.93 454.98 184.15 447.54 180.95 C 438.49 177.05 431.53 171.33 424.27 163.98 Q 413.43 153.00 405.02 143.53 Q 402.37 140.54 401.02 140.28 Q 391.34 138.43 382.72 133.18 C 375.55 128.81 371.26 123.13 364.88 115.11 C 357.46 105.78 345.52 100.10 333.53 97.78 Q 329.46 96.99 313.28 93.54 C 296.18 89.89 276.63 90.11 261.81 99.79 Q 260.03 100.96 259.66 101.66 C 255.90 108.66 251.81 116.64 247.45 123.26 Q 243.77 128.85 239.84 136.30 Q 236.57 142.48 232.35 149.09 C 230.90 151.37 227.26 157.32 223.83 164.28 Q 222.31 167.37 220.10 170.08 Q 217.91 172.76 215.33 177.87 C 214.33 179.85 214.10 181.83 214.41 183.76 C 215.65 191.43 215.51 198.40 217.31 205.34 Q 220.73 218.52 228.73 230.05 Q 234.66 238.60 245.25 237.44 C 259.63 235.86 273.14 232.74 285.92 225.89 Q 306.61 214.79 312.19 191.69 Q 312.64 189.82 313.38 184.16 Q 313.71 181.66 314.77 180.62"></path><path stroke="#363535" d="M255.54 93.16Q255.09 93.67 255.25 93.91A.22.21-42.8 0 0 255.59 93.92Q256.01 93.4 255.87 93.19A.21.21 0 0 0 255.54 93.16M520.43 124.72Q527.56 122.05 531.26 122.05 554.16 122.05 571.08 121.1 581.42 120.51 590.37 117.93A.88.88 0 0 0 590.89 116.65C586.32 108.6 576.43 107.21 567.77 107.22Q549.69 107.24 536.25 107.2 524.92 107.16 519.87 108.52 512.81 110.42 504.72 115.49 503.41 116.31 502.85 117.11 496.83 125.86 496.3 126.55C491.76 132.47 485.34 135.92 478.16 138.15Q474.4 139.31 471.6 139.48 465.55 139.84 462.58 139.87 438.53 140.15 418.62 139.93 417.9 139.92 418.33 140.5 428.83 154.6 441.8 164.91 450.37 171.72 460.12 172.56 469.64 173.37 477 169.19C489.31 162.19 498.38 150.5 506.77 139.93 508.98 137.15 513.58 132.19 516.46 127.97 517.07 127.08 519.05 125.24 520.43 124.72M341.62 207.77A.26.26 0 0 0 341.36 207.51.26.26 0 0 0 341.1 207.77.26.26 0 0 0 341.36 208.03.26.26 0 0 0 341.62 207.77"></path><path stroke="#5c3536" d="M65.72 239.67Q43.9 254.73 32 275.5C27.46 283.42 23.76 294.44 22.6 304.51Q21.71 312.26 21.61 314.07 20.44 334.73 28.92 354.49C30.07 357.16 32.09 359.46 33.37 361.93Q43.62 381.71 63.07 394.58C66.74 397.01 71.58 398.68 74.96 400.43 84.26 405.21 94.63 407.94 104.88 408.94Q109.67 409.41 115.14 409.07 122.52 408.62 125.39 407.85 133.39 405.73 133.85 405.62 139.34 404.31 142.17 403.01 148.12 400.27 156.92 395.74C161.11 393.58 165.06 389.85 168.41 387.41Q172.58 384.37 176.05 380.04 181.76 372.93 184.14 369.57A.88.88 0 0 0 184.05 368.45L180.81 365.22A1.97 1.97 0 0 1 180.81 362.43C183.56 359.7 188.42 359.95 191.61 357.43Q193.63 355.84 194.31 354.59M200.69 324.28Q198.96 323.05 196.27 322.54 195.78 322.44 195.44 322.09C194.05 320.67 192.19 318.19 194.03 316.27Q195.39 314.86 198.81 310.33"></path><path stroke="#5c3536" d="M182.36 261.92 170.41 258.75A.78.78 0 0 0 169.54 259.11L161.53 273A1.78 1.76 47.3 0 0 161.47 274.66Q163.97 279.86 169.25 288.66 174.73 297.79 176.67 308.85 178.15 317.31 177.56 323.42 177 329.16 175.13 337.85C173 347.75 167.23 355.34 160.75 362.93 154.71 370.01 147.19 374.92 138.51 379.33Q131.65 382.81 124.6 383.81 111.62 385.65 98.23 383.9C86.79 382.4 77.78 376.97 68.22 369.66 64.6 366.89 61.28 362.45 58.65 359.66Q54.95 355.72 52.57 351.28 37.1 322.31 49.91 291.74C53.73 282.64 60.75 273.78 68.42 267.72Q73.92 263.37 75.78 262.25 79.9 259.77 90.69 255.92 96.11 253.99 107.75 253.6 110.08 253.52 121.74 255.18C125.15 255.67 127.38 257.09 130.1 258.25Q131.71 258.94 132.54 257.4 134.06 254.57 138.63 246.13 140.67 242.36 141.66 238.29M633.49 259.74C638.1 262.14 640.84 265.79 645.18 269.33 651.22 274.24 656.53 282.8 659.77 289.32Q661.77 293.35 663.36 300.41C665.06 307.92 666.24 314.65 665.6 322.34 664.87 331.11 662.92 340.47 658.65 348.27Q655.49 354.06 654.24 355.75 648.32 363.77 641 369.84C637.12 373.06 631.62 375.82 628.02 378.1 625.14 379.93 622.21 380.46 619.47 381.76Q616.63 383.1 612.77 383.58 596.39 385.62 583.32 383.36 572.58 381.5 565.5 377.02 561.39 374.43 557.48 372.18C551.48 368.73 548.11 363.57 543.76 358.67Q541.14 355.72 538.92 351.25 534.99 343.36 532.76 337.36 532.56 336.83 531.99 336.81L510.49 335.91Q509.35 335.86 509.58 336.98 511.49 346.13 514.44 353.22C516.61 358.44 520.13 362.97 523.31 368.28Q526.43 373.49 531.12 378.56C537.85 385.85 545.47 392.79 554.64 397.12 562.29 400.73 568.36 403.86 575.92 405.83Q577.41 406.21 584.5 408.01 586.02 408.39 595.98 409.16 602.17 409.63 607.41 408.7 619.1 406.61 626.84 403.27 629.17 402.26 637.18 398.9C644.98 395.63 651.11 390.29 657.86 384.74Q661.56 381.7 664.07 378.63 672.43 368.43 672.44 368.41 678.75 358.56 684.33 343.16 687.57 334.2 687.86 325.97 688.38 311.4 686.82 302.88 685.3 294.54 679.61 280.29 676.3 272.02 671.33 265.52 664.57 256.68 658.63 251.1 654.34 247.07 644.52 240.38 637.21 235.4 629.03 232.75C614.82 228.15 600.61 225.65 585.9 227.68Q574.25 229.28 559.17 234.95 554.14 236.84 548.28 240.87 540.12 246.47 538.15 248.15 535.57 250.35 526.71 259.78C523.79 262.9 522.37 266.21 519.82 269.4 514.84 275.62 511.92 283.42 510.73 291.22A.4.4 0 0 0 511.11 291.68L531.43 292.53A2.05 2.05 0 0 0 533.42 291.24C536.44 283.77 541.17 276.15 547.34 270.44Q549.57 268.38 552.11 265.35 553.71 263.44 558.7 260.44 567.74 254.98 576.69 251.97 595.06 245.8 613.38 251.18 621.81 253.65 633.49 259.74M157.259 411.2938A2.56.47-26.1 0 0 154.7532 411.9979 2.56.47-26.1 0 0 152.661 413.5462 2.56.47-26.1 0 0 155.1668 412.8421 2.56.47-26.1 0 0 157.259 411.2938M558.8 412.02Q558.46 411.34 557.62 411.33 557.42 411.33 557.59 411.44 559.18 412.51 559.52 413.32 559.67 413.67 559.85 413.76 560.22 413.95 560.6 413.74 561.15 413.42 560.57 413.17L559.51 412.7Q559.03 412.49 558.8 412.02"></path><path stroke="#363535" d="M 193.6170 189.8548 A 1.04 0.64 80.2 0 0 194.0707 188.7211 A 1.04 0.64 80.2 0 0 193.2630 187.8052 A 1.04 0.64 80.2 0 0 192.8093 188.9389 A 1.04 0.64 80.2 0 0 193.6170 189.8548"></path><path stroke="#5c3536" d="M 530.3486 339.3211 A 1.25 0.37 -2.7 0 0 529.0826 339.0104 A 1.25 0.37 -2.7 0 0 527.8514 339.4389 A 1.25 0.37 -2.7 0 0 529.1174 339.7496 A 1.25 0.37 -2.7 0 0 530.3486 339.3211"></path></g><path fill="#4e374f" d="M 323.48 19.50 L 323.48 11.77 A 2.31 2.30 0.0 0 0 321.17 9.47 L 278.78 9.47 Q 277.33 9.47 277.33 8.02 L 277.33 3.18 A 1.39 1.39 0.0 0 1 278.71 1.79 Q 285.15 1.78 312.84 1.79 C 316.70 1.79 320.24 2.20 323.49 2.18 C 329.33 2.13 331.92 5.62 332.46 11.10 Q 333.11 17.89 332.37 22.40 Q 331.73 26.27 328.90 28.19 Q 327.15 29.38 322.86 29.39 Q 303.88 29.46 279.59 29.28 Q 277.54 29.27 277.54 27.22 L 277.54 22.45 Q 277.54 20.65 279.34 20.65 L 322.33 20.65 A 1.15 1.15 0.0 0 0 323.48 19.50 Z"></path><path fill="#4e374f" d="M 41.71 245.36 Q 43.71 242.61 40.34 243.50 Q 37.19 244.34 34.39 243.98 C 31.89 243.66 30.36 239.40 30.90 237.20 Q 31.33 235.49 33.23 234.33 Q 35.04 233.22 40.11 229.11 Q 42.60 227.09 46.95 224.67 Q 49.69 223.15 53.94 220.58 Q 67.67 212.27 79.16 208.68 C 83.07 207.46 87.05 205.68 90.64 204.94 Q 101.25 202.75 107.40 201.68 C 109.62 201.29 112.00 201.83 113.86 201.69 Q 129.25 200.55 142.49 202.38 Q 155.51 204.18 161.92 205.39 A 0.80 0.79 20.0 0 0 162.77 205.00 L 176.86 180.60 A 2.35 2.33 -39.5 0 0 177.05 178.68 Q 176.32 176.57 174.40 174.87 Q 164.83 166.46 153.87 161.15 Q 150.95 159.74 143.19 157.35 Q 138.29 155.85 134.24 155.42 C 128.70 154.85 123.44 155.29 118.26 155.56 Q 115.06 155.72 111.47 156.59 Q 95.68 160.41 92.94 160.93 Q 87.65 161.93 82.76 161.50 C 80.32 161.28 78.30 159.74 77.47 157.21 Q 74.10 146.84 79.64 137.39 C 82.52 132.48 88.93 129.42 94.28 127.72 Q 101.72 125.36 111.05 125.31 A 1.89 1.89 0.0 0 0 112.94 123.40 Q 112.86 116.26 113.76 111.30 C 114.45 107.51 116.04 103.81 119.47 101.57 C 120.83 100.67 122.45 99.04 124.23 97.90 C 131.04 93.53 136.36 86.98 141.00 80.56 Q 150.15 67.89 154.60 62.35 Q 164.09 50.56 167.52 47.51 C 173.57 42.11 177.88 37.12 183.54 32.80 C 186.57 30.48 190.69 26.69 194.28 24.25 Q 200.18 20.23 205.72 15.75 Q 207.95 13.95 211.48 15.10 C 216.48 16.73 221.73 17.99 225.25 22.27 C 232.79 31.41 231.87 41.31 231.80 54.25 C 231.76 61.43 233.45 69.25 238.53 74.21 A 1.40 1.40 0.0 0 0 240.66 74.00 Q 243.16 70.35 246.45 67.45 C 248.26 65.85 246.68 61.35 246.44 59.77 Q 246.22 58.32 247.50 55.62 C 248.70 53.09 252.28 52.17 255.39 51.18 Q 255.95 51.00 257.34 49.59 Q 259.15 47.77 264.51 43.30 Q 266.22 41.86 268.40 41.45 Q 271.93 40.79 272.78 40.79 Q 310.52 40.73 323.75 40.85 Q 325.80 40.86 327.14 41.30 A 2.41 2.39 -81.0 0 1 328.79 43.59 L 328.79 47.14 A 0.65 0.65 0.0 0 0 329.50 47.79 C 332.29 47.56 335.40 48.22 337.55 48.44 Q 346.44 49.35 355.42 51.07 C 357.54 51.48 358.25 53.31 356.95 55.07 Q 353.36 59.93 347.52 57.00 C 345.32 55.90 340.49 56.71 337.59 56.22 Q 334.98 55.79 329.28 55.57 A 1.63 1.63 0.0 0 0 327.68 57.73 Q 329.18 62.13 328.68 66.22 Q 328.44 68.19 326.27 69.01 C 323.45 70.07 321.66 70.88 318.49 70.88 C 307.17 70.90 295.83 70.36 284.56 71.61 Q 280.42 72.07 278.11 73.68 Q 273.07 77.18 270.16 82.88 A 1.04 1.01 -32.9 0 0 270.06 83.32 Q 270.09 84.55 271.50 84.17 Q 277.64 82.51 285.75 80.68 Q 287.43 80.30 294.92 80.41 Q 299.17 80.46 304.05 81.16 Q 321.00 83.56 325.03 84.43 Q 334.10 86.39 334.46 86.46 Q 340.36 87.47 343.77 88.76 Q 351.81 91.80 359.13 95.35 Q 363.24 97.35 365.95 100.04 Q 371.65 105.70 375.91 110.92 Q 381.72 118.05 383.22 119.48 C 388.13 124.15 393.41 126.65 400.47 128.29 Q 404.06 129.13 408.60 129.14 Q 448.28 129.23 462.54 129.20 C 471.54 129.18 478.49 126.38 485.73 121.71 C 490.94 118.35 491.37 110.83 496.76 106.78 Q 504.08 101.28 512.29 98.83 C 516.70 97.51 521.11 97.52 526.19 97.12 Q 529.29 96.87 531.82 96.89 Q 556.41 97.04 565.51 96.67 Q 569.36 96.51 573.98 97.00 C 577.77 97.39 581.92 97.46 585.15 98.55 Q 597.88 102.86 603.52 114.88 A 0.78 0.78 0.0 0 0 604.34 115.31 Q 606.23 115.00 608.19 114.41 Q 622.05 110.21 636.41 104.11 C 640.45 102.40 644.18 105.84 644.18 109.56 Q 644.16 120.53 644.18 139.60 Q 644.19 146.79 643.10 149.21 Q 640.77 154.39 633.82 154.83 C 632.27 154.92 630.85 154.52 629.39 154.63 Q 621.90 155.19 609.34 155.13 C 603.82 155.11 599.50 155.54 594.06 155.65 C 587.11 155.79 576.04 157.61 571.22 163.16 Q 566.37 168.74 563.57 175.06 Q 560.11 182.86 559.61 183.83 C 556.60 189.60 553.42 195.41 550.98 201.40 Q 548.69 207.02 547.45 209.38 C 545.29 213.51 544.21 218.14 542.22 222.05 C 540.82 224.80 540.43 227.95 540.10 230.61 A 0.97 0.97 0.0 0 0 541.44 231.62 C 547.04 229.26 553.28 225.15 559.10 223.26 Q 568.73 220.13 576.52 218.12 A 1.11 1.10 81.7 0 0 577.35 217.00 Q 577.21 213.82 578.38 210.52 A 1.20 1.19 -70.4 0 1 579.91 209.79 Q 585.67 211.84 589.31 215.17 Q 589.88 215.69 591.50 215.57 Q 595.35 215.28 599.25 214.80 Q 600.86 214.60 603.07 212.06 Q 603.86 211.15 607.37 210.11 C 611.44 208.90 613.18 212.34 613.09 215.86 A 1.25 1.25 0.0 0 0 614.09 217.11 Q 618.53 218.00 623.99 219.86 Q 624.25 219.95 633.30 222.92 Q 642.19 225.83 649.73 231.06 C 650.69 231.72 651.57 232.00 652.75 231.49 Q 659.07 228.80 662.96 226.73 A 0.88 0.87 55.7 0 1 664.04 226.94 C 666.62 229.96 665.39 236.61 663.73 239.42 A 1.78 1.78 0.0 0 0 664.21 241.76 C 668.02 244.54 672.58 248.32 675.96 253.04 Q 677.31 254.92 684.91 265.64 A 2.41 2.40 77.5 0 0 686.41 266.60 Q 689.92 267.28 694.83 267.66 Q 696.25 267.78 697.20 268.41 A 2.24 2.24 0.0 0 1 697.84 271.49 C 696.26 273.94 694.80 276.83 692.96 278.19 Q 691.97 278.91 691.53 279.40 Q 691.17 279.80 691.37 280.30 Q 696.92 293.87 697.79 307.00 A 1.84 1.84 0.0 0 0 698.66 308.45 C 703.70 311.58 707.68 314.78 707.86 321.21 C 707.96 324.68 703.19 325.81 700.34 325.41 A 1.46 1.45 -83.1 0 0 698.70 326.70 Q 696.97 343.37 690.26 358.72 A 1.05 1.05 0.0 0 0 690.99 360.17 L 694.16 360.88 A 1.67 1.65 -1.1 0 1 695.41 362.07 C 695.91 363.92 695.96 367.97 694.78 369.51 C 691.24 374.14 684.42 369.23 682.13 372.88 Q 676.29 382.20 674.50 383.76 Q 669.34 388.31 665.53 393.17 A 1.19 1.18 44.0 0 0 665.56 394.67 Q 667.37 396.81 668.93 399.89 C 670.16 402.33 666.94 405.31 664.49 403.92 Q 662.12 402.57 660.05 400.30 Q 658.81 398.92 657.33 400.03 Q 649.16 406.17 643.03 408.70 Q 637.26 411.08 643.50 411.08 L 692.60 411.08 A 1.52 1.52 0.0 0 1 694.12 412.60 L 694.12 420.20 A 2.04 2.04 0.0 0 1 692.08 422.24 L 13.22 422.24 A 1.29 1.29 0.0 0 1 11.96 421.22 L 9.78 411.30 A 0.59 0.59 0.0 0 1 10.36 410.58 Q 19.88 410.58 27.54 410.60 C 33.05 410.61 42.08 411.47 49.48 410.81 Q 50.02 410.76 50.34 410.48 A 0.38 0.38 0.0 0 0 50.21 409.84 C 45.24 408.19 44.91 403.08 44.47 397.94 Q 44.44 397.56 44.80 397.67 Q 44.97 397.72 45.07 397.79 Q 45.17 397.86 45.23 397.99 Q 47.47 402.82 48.81 403.69 Q 52.54 406.09 55.33 409.48 C 56.31 410.68 57.65 411.26 59.00 411.27 Q 63.70 411.30 68.30 411.87 Q 68.61 411.91 68.81 411.67 Q 68.92 411.55 68.94 411.39 Q 68.97 411.13 68.73 411.02 Q 62.52 408.14 56.03 403.97 Q 54.40 402.93 52.06 400.60 C 49.74 398.30 46.44 396.43 44.52 394.37 C 42.66 392.39 40.20 390.86 38.89 388.86 C 35.98 384.41 31.84 381.40 29.07 376.87 Q 23.90 368.40 21.85 364.54 Q 21.10 363.13 20.16 364.42 C 18.56 366.64 16.00 370.50 13.20 371.50 A 0.67 0.66 66.4 0 1 12.37 371.17 C 11.19 368.83 9.88 366.07 10.79 363.22 Q 12.33 358.37 14.74 354.23 C 15.31 353.25 15.34 351.77 15.05 350.60 Q 12.28 339.38 11.38 326.09 A 2.03 2.02 -85.6 0 0 9.80 324.24 L 5.01 323.16 Q 4.43 323.03 4.14 322.52 Q 0.97 316.96 5.21 312.18 A 0.95 0.94 20.3 0 1 5.92 311.86 L 9.69 311.86 A 1.55 1.53 -88.2 0 0 11.22 310.41 Q 12.06 296.87 15.56 284.01 C 15.98 282.50 15.99 281.48 15.08 280.17 C 13.20 277.49 10.07 272.49 10.77 269.24 A 1.27 1.19 31.1 0 1 12.91 268.79 Q 13.22 269.13 14.83 271.00 Q 15.46 271.73 16.07 271.40 Q 16.54 271.15 16.42 270.63 Q 16.24 269.82 15.27 268.98 Q 14.15 268.02 14.65 266.59 L 14.93 265.78 A 1.47 1.47 0.0 0 1 17.36 265.23 L 21.05 268.92 A 1.44 1.43 39.7 0 0 23.24 268.72 C 24.85 266.37 26.02 263.51 27.85 261.34 Q 31.45 257.11 37.81 249.27 C 38.93 247.89 40.91 246.45 41.71 245.36 Z M 123.96 132.51 Q 119.73 136.40 116.52 136.36 Q 106.25 136.25 102.04 136.49 Q 92.86 137.03 88.33 144.28 C 87.10 146.25 86.70 148.85 87.71 150.91 A 0.81 0.81 0.0 0 0 88.84 151.26 Q 98.39 145.77 109.44 144.92 Q 122.83 143.90 124.06 143.81 Q 131.78 143.23 136.95 144.07 Q 152.52 146.57 165.77 154.86 C 172.68 159.17 178.17 162.78 183.33 168.70 A 0.81 0.81 0.0 0 0 184.66 168.55 Q 186.49 165.15 188.54 161.86 C 191.31 157.43 194.24 151.37 197.07 146.87 C 201.15 140.40 203.67 135.00 208.26 127.41 Q 212.42 120.52 214.85 116.26 Q 222.16 103.45 231.27 89.25 C 232.18 87.84 232.51 86.94 231.47 85.52 Q 223.77 74.98 221.55 62.77 C 220.30 55.85 220.96 47.19 220.59 40.54 C 220.25 34.48 217.21 27.97 211.24 26.32 A 1.88 1.87 31.9 0 0 209.50 26.72 Q 202.37 33.04 195.98 37.21 C 190.86 40.56 187.41 44.76 182.10 49.55 C 176.75 54.38 173.05 58.51 167.98 63.67 C 165.49 66.20 163.28 69.34 161.08 71.91 C 156.21 77.59 153.64 82.12 147.94 90.28 C 144.07 95.82 139.85 99.81 135.10 103.35 Q 129.21 107.74 126.31 110.66 C 124.40 112.59 124.02 114.10 123.88 116.82 Q 123.53 123.91 124.32 130.04 Q 124.56 131.95 123.96 132.51 Z M 265.69 60.14 Q 265.46 60.07 265.19 60.16 Q 264.92 60.25 264.79 60.43 Q 262.92 62.96 260.46 64.91 C 258.66 66.33 256.17 69.51 254.80 71.68 Q 249.60 79.93 247.80 82.58 C 242.89 89.79 238.35 97.66 233.76 105.29 Q 232.55 107.30 228.36 114.74 C 224.27 122.01 219.47 128.20 216.19 134.67 Q 214.96 137.08 210.02 145.53 C 208.70 147.79 206.40 150.48 205.02 153.13 Q 202.62 157.78 199.77 162.17 C 198.32 164.41 197.40 167.13 195.85 169.27 C 191.60 175.12 188.40 181.80 184.57 188.23 Q 182.64 191.48 180.69 194.69 Q 179.86 196.06 175.14 204.51 Q 172.90 208.51 170.81 211.57 C 166.21 218.26 162.39 225.89 158.49 232.00 Q 154.79 237.80 150.74 245.51 C 145.95 254.65 142.32 261.11 139.01 267.56 Q 136.14 273.16 132.40 279.15 C 129.72 283.44 126.37 291.45 122.86 297.34 Q 121.17 300.18 119.51 303.38 Q 115.82 306.30 113.89 310.15 C 112.20 313.53 112.58 319.36 115.97 321.82 C 118.29 323.51 124.39 323.43 126.24 320.99 C 128.10 318.55 128.69 315.71 127.80 312.53 Q 127.26 310.61 127.09 309.00 Q 133.62 300.73 138.60 291.44 Q 141.86 285.36 144.61 281.11 Q 149.25 273.95 153.04 266.30 C 154.45 263.45 156.93 260.42 158.08 258.06 Q 161.53 250.91 165.73 242.52 C 167.63 238.72 169.31 236.63 172.20 232.47 L 180.61 217.82 Q 180.94 217.24 184.83 211.04 Q 186.11 209.00 188.46 203.91 Q 189.75 201.12 192.90 196.18 Q 197.86 188.40 203.34 178.09 C 205.92 173.23 209.17 169.31 211.36 164.87 Q 213.22 161.09 219.38 149.68 C 221.32 146.08 223.74 143.60 225.54 139.97 Q 229.33 132.37 234.46 124.21 C 237.22 119.82 239.60 114.81 242.09 110.99 Q 245.07 106.41 247.72 101.04 Q 253.84 88.65 260.56 77.61 Q 262.42 74.56 264.54 71.90 Q 267.94 67.63 269.30 66.79 Q 273.22 64.34 277.20 61.38 Q 281.74 60.71 286.56 60.13 C 295.70 59.03 304.10 59.58 314.50 59.58 A 1.28 1.28 0.0 0 0 315.78 58.31 L 315.80 53.20 Q 315.80 51.91 314.51 51.91 L 272.70 51.91 A 2.57 2.56 6.5 0 0 270.20 53.89 Q 269.56 56.61 266.77 58.38 A 1.68 1.64 86.7 0 0 266.12 59.13 L 265.69 60.14 Z M 262.2155 81.9709 A 0.73 0.36 124.6 0 0 262.9263 81.5744 A 0.73 0.36 124.6 0 0 263.0445 80.7691 A 0.73 0.36 124.6 0 0 262.3337 81.1656 A 0.73 0.36 124.6 0 0 262.2155 81.9709 Z M 260.2487 85.2700 A 0.94 0.32 118.0 0 0 260.9725 84.5902 A 0.94 0.32 118.0 0 0 261.1313 83.6100 A 0.94 0.32 118.0 0 0 260.4075 84.2898 A 0.94 0.32 118.0 0 0 260.2487 85.2700 Z M 258.7220 87.5001 A 1.20 0.30 124.4 0 0 259.6475 86.6795 A 1.20 0.30 124.4 0 0 260.0780 85.5199 A 1.20 0.30 124.4 0 0 259.1525 86.3405 A 1.20 0.30 124.4 0 0 258.7220 87.5001 Z M 256.2112 92.2456 A 1.03 0.27 119.6 0 0 256.9548 91.4834 A 1.03 0.27 119.6 0 0 257.2288 90.4544 A 1.03 0.27 119.6 0 0 256.4852 91.2166 A 1.03 0.27 119.6 0 0 256.2112 92.2456 Z M 314.77 180.62 C 317.25 178.20 319.27 178.09 322.37 179.34 Q 323.90 179.96 325.72 181.50 Q 337.65 191.64 342.48 195.33 Q 352.11 202.71 364.82 205.74 C 366.96 206.25 369.47 205.75 371.61 205.58 Q 372.82 205.48 373.76 206.23 C 379.34 210.71 384.13 215.08 388.41 220.61 Q 389.09 221.49 393.61 227.06 Q 399.25 234.02 404.22 242.95 C 406.55 247.14 409.77 250.90 412.30 255.37 Q 417.42 264.43 417.45 264.49 Q 424.41 275.88 430.80 287.76 A 1.58 1.57 -12.6 0 0 432.12 288.59 Q 444.06 289.14 453.53 289.43 C 455.20 289.48 457.04 289.76 458.21 288.46 Q 470.84 274.55 482.17 265.16 Q 497.02 252.83 498.34 251.71 C 503.86 247.04 509.59 243.02 513.96 238.97 Q 514.03 238.91 520.03 234.14 C 523.68 231.24 525.10 229.05 527.40 225.16 Q 532.49 216.57 536.58 206.77 Q 539.55 199.66 542.03 194.64 Q 546.03 186.56 547.96 182.72 Q 548.02 182.61 552.69 172.58 Q 555.76 165.98 560.55 159.05 Q 565.14 152.39 567.22 151.15 Q 575.91 145.96 587.75 145.34 Q 612.39 144.05 617.74 143.95 C 622.28 143.87 627.14 143.33 631.91 143.19 A 0.70 0.69 -0.9 0 0 632.59 142.50 L 632.69 118.60 A 0.49 0.48 78.7 0 0 632.02 118.15 C 627.64 120.01 624.07 121.60 619.61 122.63 C 610.55 124.73 600.65 128.24 592.17 129.39 C 581.53 130.83 574.79 132.29 565.24 132.35 Q 543.02 132.47 538.21 132.46 C 531.57 132.43 527.14 132.14 523.28 137.03 C 513.27 149.72 507.20 156.73 501.59 163.41 C 496.72 169.20 491.33 173.21 484.43 177.73 C 482.08 179.28 479.02 180.17 477.26 180.93 Q 474.05 182.32 471.65 182.68 C 463.38 183.93 454.98 184.15 447.54 180.95 C 438.49 177.05 431.53 171.33 424.27 163.98 Q 413.43 153.00 405.02 143.53 Q 402.37 140.54 401.02 140.28 Q 391.34 138.43 382.72 133.18 C 375.55 128.81 371.26 123.13 364.88 115.11 C 357.46 105.78 345.52 100.10 333.53 97.78 Q 329.46 96.99 313.28 93.54 C 296.18 89.89 276.63 90.11 261.81 99.79 Q 260.03 100.96 259.66 101.66 C 255.90 108.66 251.81 116.64 247.45 123.26 Q 243.77 128.85 239.84 136.30 Q 236.57 142.48 232.35 149.09 C 230.90 151.37 227.26 157.32 223.83 164.28 Q 222.31 167.37 220.10 170.08 Q 217.91 172.76 215.33 177.87 C 214.33 179.85 214.10 181.83 214.41 183.76 C 215.65 191.43 215.51 198.40 217.31 205.34 Q 220.73 218.52 228.73 230.05 Q 234.66 238.60 245.25 237.44 C 259.63 235.86 273.14 232.74 285.92 225.89 Q 306.61 214.79 312.19 191.69 Q 312.64 189.82 313.38 184.16 Q 313.71 181.66 314.77 180.62 Z M 255.54 93.16 Q 255.09 93.67 255.25 93.91 A 0.22 0.21 -42.8 0 0 255.59 93.92 Q 256.01 93.40 255.87 93.19 A 0.21 0.21 0.0 0 0 255.54 93.16 Z M 520.43 124.72 Q 527.56 122.05 531.26 122.05 Q 554.16 122.05 571.08 121.10 Q 581.42 120.51 590.37 117.93 A 0.88 0.88 0.0 0 0 590.89 116.65 C 586.32 108.60 576.43 107.21 567.77 107.22 Q 549.69 107.24 536.25 107.20 Q 524.92 107.16 519.87 108.52 Q 512.81 110.42 504.72 115.49 Q 503.41 116.31 502.85 117.11 Q 496.83 125.86 496.30 126.55 C 491.76 132.47 485.34 135.92 478.16 138.15 Q 474.40 139.31 471.60 139.48 Q 465.55 139.84 462.58 139.87 Q 438.53 140.15 418.62 139.93 Q 417.90 139.92 418.33 140.50 Q 428.83 154.60 441.80 164.91 Q 450.37 171.72 460.12 172.56 Q 469.64 173.37 477.00 169.19 C 489.31 162.19 498.38 150.50 506.77 139.93 C 508.98 137.15 513.58 132.19 516.46 127.97 C 517.07 127.08 519.05 125.24 520.43 124.72 Z M 323.11 196.67 Q 322.71 197.59 318.32 208.08 Q 317.33 210.46 313.37 216.38 C 310.00 221.43 305.90 224.52 301.38 228.91 Q 299.07 231.17 295.11 233.44 Q 282.12 240.90 267.79 244.77 A 0.90 0.89 -29.0 0 0 267.36 246.24 Q 270.98 250.13 274.24 254.35 Q 277.45 258.52 280.91 262.61 Q 282.24 264.17 287.49 271.29 Q 289.21 273.62 291.55 275.16 Q 292.02 275.47 292.53 275.23 Q 299.30 272.04 304.60 267.96 Q 311.97 262.30 312.06 262.24 C 317.99 258.02 326.14 252.04 333.85 247.86 Q 337.85 245.70 342.65 241.84 C 344.23 240.57 344.73 239.42 344.06 237.53 Q 340.80 228.41 338.37 222.53 C 335.78 216.27 333.26 208.19 331.77 203.25 C 330.65 199.54 327.15 198.27 324.34 196.32 Q 323.52 195.75 323.11 196.67 Z M 522.72 402.16 Q 525.52 397.67 529.63 394.46 A 0.62 0.62 0.0 0 0 529.72 393.57 Q 523.71 386.61 519.51 382.05 C 516.52 378.80 514.03 374.95 511.74 371.86 A 2.66 2.65 -18.5 0 0 509.56 370.78 Q 504.28 370.86 501.44 366.86 C 499.10 363.57 501.10 361.04 503.09 358.25 A 2.73 2.71 53.0 0 0 503.43 355.74 Q 500.08 346.57 498.35 336.89 A 1.06 1.04 -80.7 0 0 497.84 336.17 Q 496.87 335.62 495.27 335.64 Q 482.50 335.79 474.73 335.33 C 457.19 334.30 438.52 334.42 422.55 334.38 C 420.92 334.38 419.42 334.16 417.25 334.14 Q 393.37 333.88 381.51 334.12 Q 376.87 334.21 376.78 329.99 Q 376.40 311.42 376.98 291.32 Q 377.09 287.22 380.76 286.93 Q 384.13 286.67 396.37 287.80 Q 402.12 288.32 406.65 288.47 Q 407.93 288.52 416.95 288.70 A 0.90 0.90 0.0 0 0 417.83 287.52 C 417.44 286.34 416.32 285.04 415.79 284.12 Q 411.59 276.86 401.08 258.84 C 397.44 252.59 392.41 245.43 389.67 240.76 Q 387.68 237.38 384.55 233.79 C 381.00 229.71 373.09 218.38 369.38 217.83 Q 355.86 215.85 343.66 209.65 Q 341.39 208.50 342.38 210.84 Q 343.00 212.32 344.82 216.75 C 346.66 221.24 349.41 225.99 350.65 230.10 Q 353.25 238.67 354.75 243.25 A 2.13 2.13 0.0 0 1 353.75 245.78 Q 336.17 255.33 319.15 267.66 Q 307.30 276.24 303.32 279.07 Q 301.48 280.38 299.35 282.77 C 295.47 287.12 290.50 289.78 286.94 294.54 Q 285.95 295.87 283.49 297.90 Q 280.86 300.05 279.08 303.47 A 1.59 1.58 -49.9 0 0 279.22 305.14 C 282.17 309.05 286.32 311.02 289.10 315.08 Q 291.55 318.68 294.33 322.28 Q 297.14 325.92 298.69 329.44 Q 299.07 330.30 307.31 348.61 Q 307.83 349.77 309.11 349.78 L 448.79 350.35 A 1.48 1.48 0.0 0 1 450.26 351.84 L 450.24 357.37 Q 450.23 358.95 448.65 358.94 Q 331.79 358.55 307.01 358.90 Q 302.99 358.95 301.78 356.06 Q 295.11 340.10 287.46 327.37 Q 285.51 324.12 279.50 317.08 C 274.63 311.36 269.38 308.11 263.05 303.16 Q 260.04 300.81 255.45 298.65 Q 241.83 292.22 238.25 290.79 C 236.27 290.00 235.83 288.67 235.61 286.94 A 0.99 0.98 -1.7 0 1 236.66 285.83 L 239.50 286.02 A 1.17 1.16 6.5 0 0 240.73 285.05 Q 243.09 270.18 239.81 255.43 Q 239.38 253.52 236.79 249.52 Q 236.52 249.10 236.05 248.92 Q 229.73 246.48 226.98 244.03 C 223.08 240.56 217.13 233.97 214.19 228.18 Q 210.32 220.56 209.94 218.77 Q 207.96 209.61 205.69 200.11 Q 204.83 196.49 203.18 199.82 C 201.41 203.39 199.02 206.49 197.08 209.85 Q 190.58 221.11 185.38 230.44 A 1.56 1.56 0.0 0 0 185.79 232.44 C 194.47 239.13 199.67 245.82 207.53 256.46 Q 212.14 262.70 213.72 267.27 Q 215.95 273.75 216.93 276.02 C 219.33 281.59 221.55 289.90 222.23 294.27 Q 222.85 298.31 223.04 311.07 A 1.25 1.24 66.2 0 1 222.70 311.95 C 220.69 314.02 218.33 314.03 215.72 314.51 Q 215.18 314.61 215.18 315.16 Q 215.19 317.21 215.10 324.00 Q 214.97 334.45 212.43 344.09 C 211.48 347.70 209.32 352.75 207.94 356.42 A 0.69 0.68 -76.1 0 0 208.49 357.34 C 212.44 357.87 211.86 362.50 211.54 365.46 Q 211.38 366.93 210.67 367.51 C 208.70 369.12 201.57 368.63 200.27 368.60 A 2.34 2.34 0.0 0 0 198.31 369.55 Q 193.41 376.22 188.05 382.83 C 184.60 387.10 179.78 391.44 176.61 394.35 Q 174.31 396.47 173.90 399.38 A 2.05 2.02 80.6 0 1 172.83 400.90 Q 168.24 403.33 164.28 406.84 C 162.78 408.17 160.58 409.01 158.81 409.79 A 0.82 0.82 0.0 0 0 158.33 410.41 Q 158.26 410.81 158.53 410.99 C 158.57 411.02 163.74 410.99 166.50 411.03 Q 198.50 411.43 250.01 410.81 Q 260.88 410.67 270.01 410.65 Q 336.39 410.47 515.40 410.62 Q 519.68 410.62 539.26 411.10 C 544.54 411.23 550.09 410.73 555.27 411.28 Q 557.52 411.52 555.48 410.55 Q 545.79 405.96 536.76 399.23 Q 535.37 398.19 534.26 399.53 Q 530.19 404.45 523.59 403.90 A 1.14 1.14 0.0 0 1 522.72 402.16 Z M 341.62 207.77 A 0.26 0.26 0.0 0 0 341.36 207.51 A 0.26 0.26 0.0 0 0 341.10 207.77 A 0.26 0.26 0.0 0 0 341.36 208.03 A 0.26 0.26 0.0 0 0 341.62 207.77 Z M 65.72 239.67 Q 43.90 254.73 32.00 275.50 C 27.46 283.42 23.76 294.44 22.60 304.51 Q 21.71 312.26 21.61 314.07 Q 20.44 334.73 28.92 354.49 C 30.07 357.16 32.09 359.46 33.37 361.93 Q 43.62 381.71 63.07 394.58 C 66.74 397.01 71.58 398.68 74.96 400.43 C 84.26 405.21 94.63 407.94 104.88 408.94 Q 109.67 409.41 115.14 409.07 Q 122.52 408.62 125.39 407.85 Q 133.39 405.73 133.85 405.62 Q 139.34 404.31 142.17 403.01 Q 148.12 400.27 156.92 395.74 C 161.11 393.58 165.06 389.85 168.41 387.41 Q 172.58 384.37 176.05 380.04 Q 181.76 372.93 184.14 369.57 A 0.88 0.88 0.0 0 0 184.05 368.45 L 180.81 365.22 A 1.97 1.97 0.0 0 1 180.81 362.43 C 183.56 359.70 188.42 359.95 191.61 357.43 Q 193.63 355.84 194.31 354.59 Q 199.01 349.84 201.02 342.50 Q 203.39 333.81 204.69 324.57 A 1.32 1.31 6.1 0 0 203.48 323.08 Q 201.75 322.95 200.69 324.28 Q 198.96 323.05 196.27 322.54 Q 195.78 322.44 195.44 322.09 C 194.05 320.67 192.19 318.19 194.03 316.27 Q 195.39 314.86 198.81 310.33 Q 202.70 308.57 207.23 307.49 Q 208.76 307.13 210.36 305.74 C 212.22 304.13 211.54 301.40 211.26 299.29 C 209.34 284.79 204.39 269.44 195.31 258.05 Q 188.92 250.04 180.56 242.49 A 1.21 1.21 0.0 0 0 178.65 242.90 L 176.07 248.77 Q 175.83 249.31 176.06 249.85 Q 177.24 252.68 177.52 255.24 Q 177.76 257.35 179.18 259.00 Q 180.46 260.49 182.36 261.92 L 170.41 258.75 A 0.78 0.78 0.0 0 0 169.54 259.11 L 161.53 273.00 A 1.78 1.76 47.3 0 0 161.47 274.66 Q 163.97 279.86 169.25 288.66 Q 174.73 297.79 176.67 308.85 Q 178.15 317.31 177.56 323.42 Q 177.00 329.16 175.13 337.85 C 173.00 347.75 167.23 355.34 160.75 362.93 C 154.71 370.01 147.19 374.92 138.51 379.33 Q 131.65 382.81 124.60 383.81 Q 111.62 385.65 98.23 383.90 C 86.79 382.40 77.78 376.97 68.22 369.66 C 64.60 366.89 61.28 362.45 58.65 359.66 Q 54.95 355.72 52.57 351.28 Q 37.10 322.31 49.91 291.74 C 53.73 282.64 60.75 273.78 68.42 267.72 Q 73.92 263.37 75.78 262.25 Q 79.90 259.77 90.69 255.92 Q 96.11 253.99 107.75 253.60 Q 110.08 253.52 121.74 255.18 C 125.15 255.67 127.38 257.09 130.10 258.25 Q 131.71 258.94 132.54 257.40 Q 134.06 254.57 138.63 246.13 Q 140.67 242.36 141.66 238.29 C 142.99 236.71 144.66 235.17 145.64 233.44 Q 150.20 225.42 154.13 217.94 Q 154.81 216.65 153.38 216.38 Q 149.42 215.65 147.00 215.58 Q 127.95 215.01 108.79 215.21 Q 99.80 215.31 93.31 216.81 Q 82.41 219.32 71.60 223.78 C 64.41 226.75 59.10 230.73 50.19 236.63 Q 49.03 237.39 50.41 237.54 Q 56.04 238.15 60.29 238.43 Q 61.42 238.50 63.02 238.95 Q 64.15 239.26 65.72 239.67 Z M 633.49 259.74 C 638.10 262.14 640.84 265.79 645.18 269.33 C 651.22 274.24 656.53 282.80 659.77 289.32 Q 661.77 293.35 663.36 300.41 C 665.06 307.92 666.24 314.65 665.60 322.34 C 664.87 331.11 662.92 340.47 658.65 348.27 Q 655.49 354.06 654.24 355.75 Q 648.32 363.77 641.00 369.84 C 637.12 373.06 631.62 375.82 628.02 378.10 C 625.14 379.93 622.21 380.46 619.47 381.76 Q 616.63 383.10 612.77 383.58 Q 596.39 385.62 583.32 383.36 Q 572.58 381.50 565.50 377.02 Q 561.39 374.43 557.48 372.18 C 551.48 368.73 548.11 363.57 543.76 358.67 Q 541.14 355.72 538.92 351.25 Q 534.99 343.36 532.76 337.36 Q 532.56 336.83 531.99 336.81 L 510.49 335.91 Q 509.35 335.86 509.58 336.98 Q 511.49 346.13 514.44 353.22 C 516.61 358.44 520.13 362.97 523.31 368.28 Q 526.43 373.49 531.12 378.56 C 537.85 385.85 545.47 392.79 554.64 397.12 C 562.29 400.73 568.36 403.86 575.92 405.83 Q 577.41 406.21 584.50 408.01 Q 586.02 408.39 595.98 409.16 Q 602.17 409.63 607.41 408.70 Q 619.10 406.61 626.84 403.27 Q 629.17 402.26 637.18 398.90 C 644.98 395.63 651.11 390.29 657.86 384.74 Q 661.56 381.70 664.07 378.63 Q 672.43 368.43 672.44 368.41 Q 678.75 358.56 684.33 343.16 Q 687.57 334.20 687.86 325.97 Q 688.38 311.40 686.82 302.88 Q 685.30 294.54 679.61 280.29 Q 676.30 272.02 671.33 265.52 Q 664.57 256.68 658.63 251.10 Q 654.34 247.07 644.52 240.38 Q 637.21 235.40 629.03 232.75 C 614.82 228.15 600.61 225.65 585.90 227.68 Q 574.25 229.28 559.17 234.95 Q 554.14 236.84 548.28 240.87 Q 540.12 246.47 538.15 248.15 Q 535.57 250.35 526.71 259.78 C 523.79 262.90 522.37 266.21 519.82 269.40 C 514.84 275.62 511.92 283.42 510.73 291.22 A 0.40 0.40 0.0 0 0 511.11 291.68 L 531.43 292.53 A 2.05 2.05 0.0 0 0 533.42 291.24 C 536.44 283.77 541.17 276.15 547.34 270.44 Q 549.57 268.38 552.11 265.35 Q 553.71 263.44 558.70 260.44 Q 567.74 254.98 576.69 251.97 Q 595.06 245.80 613.38 251.18 Q 621.81 253.65 633.49 259.74 Z M 522.07 246.81 C 518.59 248.51 515.59 250.34 512.57 253.42 Q 510.57 255.45 508.29 257.29 Q 506.58 258.68 508.79 258.68 L 511.68 258.68 A 4.22 4.21 17.8 0 0 515.10 256.93 Q 516.43 255.09 522.41 247.70 Q 522.95 247.03 522.35 246.80 A 0.34 0.33 -46.0 0 0 522.07 246.81 Z M 247.42 248.20 Q 246.28 248.26 246.53 249.37 Q 247.19 252.31 249.21 263.31 Q 250.37 269.66 248.84 284.02 Q 248.66 285.73 249.31 286.99 A 1.47 1.47 0.0 0 0 249.99 287.64 C 253.82 289.38 257.94 290.52 261.25 292.67 Q 264.75 294.95 270.14 297.86 C 271.70 298.70 272.67 298.51 273.77 297.12 Q 278.90 290.61 284.71 285.62 A 2.03 2.02 -36.2 0 0 285.12 283.02 C 281.22 276.73 275.90 270.90 272.11 265.39 Q 271.52 264.51 267.16 259.47 C 264.46 256.34 260.02 248.19 256.32 248.12 Q 250.99 248.03 247.42 248.20 Z M 554.97 343.06 Q 553.40 341.82 555.39 341.70 C 558.49 341.52 560.98 341.83 564.23 342.75 Q 579.42 347.03 587.14 348.62 C 596.84 350.63 609.15 349.01 616.84 342.08 Q 620.30 338.96 624.38 333.66 Q 625.89 331.70 627.57 327.11 C 631.79 315.59 627.95 302.55 619.04 294.51 Q 613.27 289.28 608.51 287.46 C 603.75 285.63 596.45 283.94 590.17 285.31 Q 587.59 285.87 578.48 287.17 C 576.74 287.41 574.30 288.34 572.53 289.49 C 569.88 291.20 566.54 292.02 563.92 293.81 Q 563.21 294.30 564.05 294.44 Q 569.71 295.38 576.30 295.39 C 582.58 295.39 589.85 295.70 594.40 299.83 Q 598.32 303.39 600.08 307.62 Q 601.12 310.13 601.21 314.59 C 601.34 320.59 601.07 324.55 598.88 329.65 Q 595.60 337.29 587.54 337.56 Q 567.11 338.25 545.73 337.32 A 0.80 0.80 0.0 0 0 545.02 338.56 Q 547.40 342.19 548.73 346.49 Q 549.23 348.10 553.34 353.98 Q 555.85 357.56 559.22 360.15 C 566.91 366.06 574.54 370.54 583.72 372.46 Q 590.92 373.97 595.02 374.13 Q 610.92 374.76 625.37 367.37 Q 626.41 366.84 635.67 359.97 Q 639.25 357.32 641.26 354.46 Q 641.57 354.02 646.36 347.62 C 650.39 342.23 652.87 333.02 654.18 325.59 C 655.05 320.64 655.45 315.94 654.94 312.29 Q 654.44 308.73 651.63 299.12 C 649.23 290.91 643.79 283.57 637.66 276.82 C 634.42 273.25 628.72 270.32 625.70 268.14 C 623.27 266.39 620.81 265.57 617.66 264.09 C 613.31 262.05 608.24 261.04 604.44 260.07 Q 598.65 258.58 589.47 259.99 Q 574.48 262.30 562.12 271.39 C 554.21 277.22 549.34 282.52 546.58 291.52 A 0.77 0.77 0.0 0 0 547.36 292.52 C 551.23 292.28 553.89 291.89 557.16 288.94 C 563.30 283.39 569.67 280.64 578.29 277.08 C 581.41 275.80 584.95 275.42 589.33 274.55 Q 594.49 273.51 597.73 273.86 Q 604.17 274.56 610.27 276.27 C 613.14 277.08 615.82 278.92 619.17 280.76 C 623.88 283.36 626.98 285.80 629.99 289.76 Q 633.91 294.94 636.94 300.46 Q 637.43 301.36 639.28 309.51 Q 640.47 314.76 640.19 318.71 Q 639.77 324.59 637.98 330.66 Q 637.21 333.29 634.60 337.70 C 631.27 343.32 627.92 348.28 623.11 351.34 C 618.95 353.99 613.66 357.84 607.58 358.87 Q 598.37 360.42 587.33 359.46 Q 579.91 358.80 572.21 354.55 Q 563.39 349.67 554.97 343.06 Z M 123.93 358.40 Q 119.75 359.43 117.99 359.43 C 113.34 359.42 107.21 359.80 102.70 359.02 Q 97.36 358.10 91.48 354.98 C 88.94 353.63 87.13 351.78 84.25 349.31 C 81.27 346.76 78.94 344.08 77.14 340.95 C 73.26 334.20 70.15 326.82 70.47 318.44 C 70.99 305.17 76.41 293.15 87.69 285.36 Q 93.68 281.23 102.62 279.02 C 104.77 278.49 107.53 278.37 110.07 277.86 C 112.98 277.28 114.66 277.61 117.86 278.40 Q 119.77 278.87 120.82 277.34 Q 123.31 273.69 125.28 270.21 A 2.07 2.07 0.0 0 0 124.66 267.49 Q 123.01 266.34 120.15 265.85 Q 108.40 263.85 99.71 264.92 C 92.33 265.84 87.78 268.69 80.70 272.29 C 78.50 273.42 76.51 274.85 74.99 276.49 Q 70.46 281.35 65.25 286.75 Q 64.85 287.17 64.03 288.71 Q 60.81 294.74 58.18 301.76 Q 55.62 308.61 55.34 315.64 Q 54.96 325.18 56.92 332.04 Q 59.22 340.10 63.12 347.32 Q 66.99 354.46 73.64 359.90 Q 80.15 365.22 85.31 368.13 C 96.46 374.40 110.69 375.27 123.22 372.92 Q 131.10 371.45 137.08 368.04 Q 139.23 366.81 145.64 362.35 C 151.53 358.26 156.67 351.41 160.38 345.48 C 161.78 343.25 162.49 340.12 163.51 337.63 Q 164.73 334.64 165.37 331.54 Q 170.65 306.31 154.12 286.43 A 0.18 0.18 0.0 0 0 153.83 286.46 L 145.99 300.04 A 2.21 2.20 -45.7 0 0 146.01 302.28 C 148.76 306.81 150.64 310.54 151.11 315.81 Q 152.67 333.35 141.72 345.96 Q 136.40 352.09 129.45 356.13 Q 126.75 357.70 123.93 358.40 Z M 507.14 268.16 A 0.39 0.39 0.0 0 0 506.84 267.61 C 502.23 267.03 498.63 266.93 494.38 270.01 Q 483.05 278.23 473.11 288.94 A 0.68 0.67 23.4 0 0 473.56 290.07 L 496.74 291.66 A 0.93 0.93 0.0 0 0 497.73 290.85 Q 498.69 283.49 501.63 277.21 C 503.01 274.27 505.94 270.67 507.14 268.16 Z M 113.94 289.25 A 0.37 0.37 0.0 0 0 113.61 288.76 Q 108.14 288.48 101.97 290.13 C 98.25 291.12 95.34 293.79 91.22 296.72 C 86.86 299.83 84.14 307.16 82.56 312.90 Q 81.48 316.86 81.93 320.71 C 83.63 335.05 94.04 348.45 109.26 348.66 C 115.68 348.74 120.90 348.55 126.03 344.79 Q 132.18 340.28 135.07 336.82 C 138.13 333.16 140.60 326.66 139.90 321.35 Q 139.68 319.65 139.60 316.95 Q 139.59 316.79 139.43 316.78 L 139.08 316.75 A 0.42 0.42 0.0 0 0 138.64 317.13 Q 138.02 322.59 134.48 326.27 C 133.00 327.80 129.51 331.87 127.01 333.00 C 121.32 335.58 113.52 335.27 109.16 330.28 C 104.33 324.74 100.41 319.23 101.96 311.65 Q 102.43 309.36 105.80 303.88 C 108.31 299.81 112.16 294.75 113.94 289.25 Z M 540.02 304.83 Q 536.56 304.66 529.20 304.68 C 519.08 304.71 509.71 303.81 498.86 303.49 C 496.79 303.43 494.36 302.85 492.01 302.83 C 482.37 302.71 473.45 302.10 463.34 301.87 Q 446.11 301.48 423.50 300.64 C 418.86 300.47 406.72 300.59 398.28 299.96 Q 394.58 299.69 388.77 299.80 A 0.81 0.81 0.0 0 0 387.98 300.61 L 387.98 321.40 A 1.41 1.41 0.0 0 0 389.39 322.81 C 419.83 322.81 437.69 322.68 459.24 323.22 Q 473.13 323.57 488.75 323.71 C 491.17 323.74 494.36 324.27 497.11 324.30 Q 511.35 324.44 532.30 325.44 Q 542.71 325.94 552.27 325.96 Q 558.88 325.98 582.70 325.98 C 584.75 325.98 586.13 325.61 587.87 325.35 A 1.92 1.91 -4.0 0 0 589.51 323.47 Q 589.61 311.90 589.61 311.87 C 589.57 308.28 583.31 306.47 580.77 306.65 Q 573.95 307.15 569.31 306.63 Q 562.83 305.91 562.17 305.91 C 557.24 305.91 552.77 305.24 547.51 305.08 Q 541.24 304.89 540.02 304.83 Z M 157.2590 411.2938 A 2.56 0.47 -26.1 0 0 154.7532 411.9979 A 2.56 0.47 -26.1 0 0 152.6610 413.5462 A 2.56 0.47 -26.1 0 0 155.1668 412.8421 A 2.56 0.47 -26.1 0 0 157.2590 411.2938 Z M 558.80 412.02 Q 558.46 411.34 557.62 411.33 Q 557.42 411.33 557.59 411.44 Q 559.18 412.51 559.52 413.32 Q 559.67 413.67 559.85 413.76 Q 560.22 413.95 560.60 413.74 Q 561.15 413.42 560.57 413.17 L 559.51 412.70 Q 559.03 412.49 558.80 412.02 Z"></path><path fill="#f75835" d="M 123.96 132.51 Q 124.56 131.95 124.32 130.04 Q 123.53 123.91 123.88 116.82 C 124.02 114.10 124.40 112.59 126.31 110.66 Q 129.21 107.74 135.10 103.35 C 139.85 99.81 144.07 95.82 147.94 90.28 C 153.64 82.12 156.21 77.59 161.08 71.91 C 163.28 69.34 165.49 66.20 167.98 63.67 C 173.05 58.51 176.75 54.38 182.10 49.55 C 187.41 44.76 190.86 40.56 195.98 37.21 Q 202.37 33.04 209.50 26.72 A 1.88 1.87 31.9 0 1 211.24 26.32 C 217.21 27.97 220.25 34.48 220.59 40.54 C 220.96 47.19 220.30 55.85 221.55 62.77 Q 223.77 74.98 231.47 85.52 C 232.51 86.94 232.18 87.84 231.27 89.25 Q 222.16 103.45 214.85 116.26 Q 212.42 120.52 208.26 127.41 C 203.67 135.00 201.15 140.40 197.07 146.87 C 194.24 151.37 191.31 157.43 188.54 161.86 Q 186.49 165.15 184.66 168.55 A 0.81 0.81 0.0 0 1 183.33 168.70 C 178.17 162.78 172.68 159.17 165.77 154.86 Q 152.52 146.57 136.95 144.07 Q 131.78 143.23 124.06 143.81 Q 122.83 143.90 109.44 144.92 Q 98.39 145.77 88.84 151.26 A 0.81 0.81 0.0 0 1 87.71 150.91 C 86.70 148.85 87.10 146.25 88.33 144.28 Q 92.86 137.03 102.04 136.49 Q 106.25 136.25 116.52 136.36 Q 119.73 136.40 123.96 132.51 Z"></path><path fill="#4e374f" d="M 265.69 60.14 L 277.20 61.38 Q 273.22 64.34 269.30 66.79 Q 267.94 67.63 264.54 71.90 Q 262.42 74.56 260.56 77.61 Q 253.84 88.65 247.72 101.04 Q 245.07 106.41 242.09 110.99 C 239.60 114.81 237.22 119.82 234.46 124.21 Q 229.33 132.37 225.54 139.97 C 223.74 143.60 221.32 146.08 219.38 149.68 Q 213.22 161.09 211.36 164.87 C 209.17 169.31 205.92 173.23 203.34 178.09 Q 197.86 188.40 192.90 196.18 Q 189.75 201.12 188.46 203.91 Q 186.11 209.00 184.83 211.04 Q 180.94 217.24 180.61 217.82 L 172.20 232.47 C 169.31 236.63 167.63 238.72 165.73 242.52 Q 161.53 250.91 158.08 258.06 C 156.93 260.42 154.45 263.45 153.04 266.30 Q 149.25 273.95 144.61 281.11 Q 141.86 285.36 138.60 291.44 Q 133.62 300.73 127.09 309.00 L 119.51 303.38 Q 121.17 300.18 122.86 297.34 C 126.37 291.45 129.72 283.44 132.40 279.15 Q 136.14 273.16 139.01 267.56 C 142.32 261.11 145.95 254.65 150.74 245.51 Q 154.79 237.80 158.49 232.00 C 162.39 225.89 166.21 218.26 170.81 211.57 Q 172.90 208.51 175.14 204.51 Q 179.86 196.06 180.69 194.69 Q 182.64 191.48 184.57 188.23 C 188.40 181.80 191.60 175.12 195.85 169.27 C 197.40 167.13 198.32 164.41 199.77 162.17 Q 202.62 157.78 205.02 153.13 C 206.40 150.48 208.70 147.79 210.02 145.53 Q 214.96 137.08 216.19 134.67 C 219.47 128.20 224.27 122.01 228.36 114.74 Q 232.55 107.30 233.76 105.29 C 238.35 97.66 242.89 89.79 247.80 82.58 Q 249.60 79.93 254.80 71.68 C 256.17 69.51 258.66 66.33 260.46 64.91 Q 262.92 62.96 264.79 60.43 Q 264.92 60.25 265.19 60.16 Q 265.46 60.07 265.69 60.14 Z M 193.6170 189.8548 A 1.04 0.64 80.2 0 0 194.0707 188.7211 A 1.04 0.64 80.2 0 0 193.2630 187.8052 A 1.04 0.64 80.2 0 0 192.8093 188.9389 A 1.04 0.64 80.2 0 0 193.6170 189.8548 Z"></path><ellipse fill="#4e374f" cx="0" cy="0" transform="rotate(124.6 109.955 109.627)" rx=".73" ry=".36"></ellipse><ellipse fill="#4e374f" cx="0" cy="0" transform="rotate(118 104.977 120.54)" rx=".94" ry=".32"></ellipse><ellipse fill="#4e374f" cx="0" cy="0" transform="rotate(124.4 106.894 111.638)" rx="1.2" ry=".3"></ellipse><ellipse fill="#4e374f" cx="0" cy="0" transform="rotate(119.6 101.777 120.382)" rx="1.03" ry=".27"></ellipse><path fill="#f75835" d="M 322.37 179.34 C 319.27 178.09 317.25 178.20 314.77 180.62 Q 313.71 181.66 313.38 184.16 Q 312.64 189.82 312.19 191.69 Q 306.61 214.79 285.92 225.89 C 273.14 232.74 259.63 235.86 245.25 237.44 Q 234.66 238.60 228.73 230.05 Q 220.73 218.52 217.31 205.34 C 215.51 198.40 215.65 191.43 214.41 183.76 C 214.10 181.83 214.33 179.85 215.33 177.87 Q 217.91 172.76 220.10 170.08 Q 222.31 167.37 223.83 164.28 C 227.26 157.32 230.90 151.37 232.35 149.09 Q 236.57 142.48 239.84 136.30 Q 243.77 128.85 247.45 123.26 C 251.81 116.64 255.90 108.66 259.66 101.66 Q 260.03 100.96 261.81 99.79 C 276.63 90.11 296.18 89.89 313.28 93.54 Q 329.46 96.99 333.53 97.78 C 345.52 100.10 357.46 105.78 364.88 115.11 C 371.26 123.13 375.55 128.81 382.72 133.18 Q 391.34 138.43 401.02 140.28 Q 402.37 140.54 405.02 143.53 Q 413.43 153.00 424.27 163.98 C 431.53 171.33 438.49 177.05 447.54 180.95 C 454.98 184.15 463.38 183.93 471.65 182.68 Q 474.05 182.32 477.26 180.93 C 479.02 180.17 482.08 179.28 484.43 177.73 C 491.33 173.21 496.72 169.20 501.59 163.41 C 507.20 156.73 513.27 149.72 523.28 137.03 C 527.14 132.14 531.57 132.43 538.21 132.46 Q 543.02 132.47 565.24 132.35 C 574.79 132.29 581.53 130.83 592.17 129.39 C 600.65 128.24 610.55 124.73 619.61 122.63 C 624.07 121.60 627.64 120.01 632.02 118.15 A 0.49 0.48 78.7 0 1 632.69 118.60 L 632.59 142.50 A 0.70 0.69 -0.9 0 1 631.91 143.19 C 627.14 143.33 622.28 143.87 617.74 143.95 Q 612.39 144.05 587.75 145.34 Q 575.91 145.96 567.22 151.15 Q 565.14 152.39 560.55 159.05 Q 555.76 165.98 552.69 172.58 Q 548.02 182.61 547.96 182.72 Q 546.03 186.56 542.03 194.64 Q 539.55 199.66 536.58 206.77 Q 532.49 216.57 527.40 225.16 C 525.10 229.05 523.68 231.24 520.03 234.14 Q 514.03 238.91 513.96 238.97 C 509.59 243.02 503.86 247.04 498.34 251.71 Q 497.02 252.83 482.17 265.16 Q 470.84 274.55 458.21 288.46 C 457.04 289.76 455.20 289.48 453.53 289.43 Q 444.06 289.14 432.12 288.59 A 1.58 1.57 -12.6 0 1 430.80 287.76 Q 424.41 275.88 417.45 264.49 Q 417.42 264.43 412.30 255.37 C 409.77 250.90 406.55 247.14 404.22 242.95 Q 399.25 234.02 393.61 227.06 Q 389.09 221.49 388.41 220.61 C 384.13 215.08 379.34 210.71 373.76 206.23 Q 372.82 205.48 371.61 205.58 C 369.47 205.75 366.96 206.25 364.82 205.74 Q 352.11 202.71 342.48 195.33 Q 337.65 191.64 325.72 181.50 Q 323.90 179.96 322.37 179.34 Z"></path><path fill="#4e374f" d="M255.54 93.16A.21.21 0 0 1 255.87 93.19Q256.01 93.4 255.59 93.92A.22.21-42.8 0 1 255.25 93.91Q255.09 93.67 255.54 93.16ZM520.43 124.72C519.05 125.24 517.07 127.08 516.46 127.97 513.58 132.19 508.98 137.15 506.77 139.93 498.38 150.5 489.31 162.19 477 169.19Q469.64 173.37 460.12 172.56 450.37 171.72 441.8 164.91 428.83 154.6 418.33 140.5 417.9 139.92 418.62 139.93 438.53 140.15 462.58 139.87 465.55 139.84 471.6 139.48 474.4 139.31 478.16 138.15C485.34 135.92 491.76 132.47 496.3 126.55Q496.83 125.86 502.85 117.11 503.41 116.31 504.72 115.49 512.81 110.42 519.87 108.52 524.92 107.16 536.25 107.2 549.69 107.24 567.77 107.22C576.43 107.21 586.32 108.6 590.89 116.65A.88.88 0 0 1 590.37 117.93Q581.42 120.51 571.08 121.1 554.16 122.05 531.26 122.05 527.56 122.05 520.43 124.72Z"></path><ellipse fill="#4e374f" cx="0" cy="0" transform="rotate(80.2 -15.401 209.274)" rx="1.04" ry=".64"></ellipse><circle fill="#4e374f" cx="341.36" cy="207.77" r=".26"></circle><path fill="#f75835" d="M633.49 259.74Q621.81 253.65 613.38 251.18 595.06 245.8 576.69 251.97 567.74 254.98 558.7 260.44 553.71 263.44 552.11 265.35 549.57 268.38 547.34 270.44C541.17 276.15 536.44 283.77 533.42 291.24A2.05 2.05 0 0 1 531.43 292.53L511.11 291.68A.4.4 0 0 1 510.73 291.22C511.92 283.42 514.84 275.62 519.82 269.4 522.37 266.21 523.79 262.9 526.71 259.78Q535.57 250.35 538.15 248.15 540.12 246.47 548.28 240.87 554.14 236.84 559.17 234.95 574.25 229.28 585.9 227.68C600.61 225.65 614.82 228.15 629.03 232.75Q637.21 235.4 644.52 240.38 654.34 247.07 658.63 251.1 664.57 256.68 671.33 265.52 676.3 272.02 679.61 280.29 685.3 294.54 686.82 302.88 688.38 311.4 687.86 325.97 687.57 334.2 684.33 343.16 678.75 358.56 672.44 368.41 672.43 368.43 664.07 378.63 661.56 381.7 657.86 384.74C651.11 390.29 644.98 395.63 637.18 398.9Q629.17 402.26 626.84 403.27 619.1 406.61 607.41 408.7 602.17 409.63 595.98 409.16 586.02 408.39 584.5 408.01 577.41 406.21 575.92 405.83C568.36 403.86 562.29 400.73 554.64 397.12 545.47 392.79 537.85 385.85 531.12 378.56Q526.43 373.49 523.31 368.28C520.13 362.97 516.61 358.44 514.44 353.22Q511.49 346.13 509.58 336.98 509.35 335.86 510.49 335.91L531.99 336.81Q532.56 336.83 532.76 337.36 534.99 343.36 538.92 351.25 541.14 355.72 543.76 358.67C548.11 363.57 551.48 368.73 557.48 372.18Q561.39 374.43 565.5 377.02 572.58 381.5 583.32 383.36 596.39 385.62 612.77 383.58 616.63 383.1 619.47 381.76C622.21 380.46 625.14 379.93 628.02 378.1 631.62 375.82 637.12 373.06 641 369.84Q648.32 363.77 654.24 355.75 655.49 354.06 658.65 348.27C662.92 340.47 664.87 331.11 665.6 322.34 666.24 314.65 665.06 307.92 663.36 300.41Q661.77 293.35 659.77 289.32C656.53 282.8 651.22 274.24 645.18 269.33 640.84 265.79 638.1 262.14 633.49 259.74ZM530.3486 339.3211A1.25.37-2.7 0 0 529.0826 339.0104 1.25.37-2.7 0 0 527.8514 339.4389 1.25.37-2.7 0 0 529.1174 339.7496 1.25.37-2.7 0 0 530.3486 339.3211ZM141.66 238.29Q140.67 242.36 138.63 246.13 134.06 254.57 132.54 257.4 131.71 258.94 130.1 258.25C127.38 257.09 125.15 255.67 121.74 255.18Q110.08 253.52 107.75 253.6 96.11 253.99 90.69 255.92 79.9 259.77 75.78 262.25 73.92 263.37 68.42 267.72C60.75 273.78 53.73 282.64 49.91 291.74Q37.1 322.31 52.57 351.28 54.95 355.72 58.65 359.66C61.28 362.45 64.6 366.89 68.22 369.66 77.78 376.97 86.79 382.4 98.23 383.9Q111.62 385.65 124.6 383.81 131.65 382.81 138.51 379.33C147.19 374.92 154.71 370.01 160.75 362.93 167.23 355.34 173 347.75 175.13 337.85Q177 329.16 177.56 323.42 178.15 317.31 176.67 308.85 174.73 297.79 169.25 288.66 163.97 279.86 161.47 274.66A1.78 1.76 47.3 0 1 161.53 273L169.54 259.11A.78.78 0 0 1 170.41 258.75L182.36 261.92Q184.66 266.02 185.36 267.89 187.76 274.34 190.47 280.64 193.56 287.82 195.01 291.98 197.92 300.32 198.81 310.33 195.39 314.86 194.03 316.27C192.19 318.19 194.05 320.67 195.44 322.09Q195.78 322.44 196.27 322.54 198.96 323.05 200.69 324.28L194.31 354.59Q193.63 355.84 191.61 357.43C188.42 359.95 183.56 359.7 180.81 362.43A1.97 1.97 0 0 0 180.81 365.22L184.05 368.45A.88.88 0 0 1 184.14 369.57Q181.76 372.93 176.05 380.04 172.58 384.37 168.41 387.41C165.06 389.85 161.11 393.58 156.92 395.74Q148.12 400.27 142.17 403.01 139.34 404.31 133.85 405.62 133.39 405.73 125.39 407.85 122.52 408.62 115.14 409.07 109.67 409.41 104.88 408.94C94.63 407.94 84.26 405.21 74.96 400.43 71.58 398.68 66.74 397.01 63.07 394.58Q43.62 381.71 33.37 361.93C32.09 359.46 30.07 357.16 28.92 354.49Q20.44 334.73 21.61 314.07 21.71 312.26 22.6 304.51C23.76 294.44 27.46 283.42 32 275.5Q43.9 254.73 65.72 239.67 67.61 239.02 70.39 238.88 81.5 238.33 94.75 238.43C99.56 238.46 104.99 237.53 109.78 237.96 115.46 238.47 121.08 238.33 126.58 238.75 130.66 239.06 136.9 239.95 141.66 238.29Z"></path><ellipse fill="#4e374f" cx="0" cy="0" transform="rotate(71 -174.389 147.668)" rx=".94" ry=".32"></ellipse><path fill="#4e374f" d="M 366.20 319.21 C 363.10 324.26 357.92 328.01 353.13 330.62 Q 348.15 333.33 342.88 333.93 C 331.76 335.18 322.81 331.47 315.13 324.18 C 310.95 320.22 309.12 315.16 307.00 309.83 Q 305.86 306.96 305.61 304.51 Q 304.71 295.49 308.72 286.99 Q 309.58 285.18 314.63 279.01 Q 317.68 275.28 320.91 273.63 Q 323.10 272.51 328.70 270.45 C 339.00 266.66 351.00 269.52 359.66 275.43 Q 363.10 277.78 365.29 281.29 C 369.16 287.49 371.31 290.85 371.68 297.54 Q 372.32 309.23 366.20 319.21 Z M 339.28 322.85 Q 344.93 322.69 348.21 320.75 Q 355.29 316.58 358.99 308.03 Q 361.73 301.70 359.04 294.11 C 356.05 285.69 347.17 280.11 338.25 280.58 Q 338.21 280.58 338.09 280.58 Q 337.98 280.59 337.94 280.59 C 329.00 280.62 320.45 286.69 317.94 295.26 Q 315.68 302.99 318.77 309.16 Q 322.95 317.49 330.24 321.26 Q 333.63 323.01 339.28 322.85 Z"></path><ellipse fill="#4e374f" cx="0" cy="0" transform="rotate(-2.7 7465.084 -11056.083)" rx="1.25" ry=".37"></ellipse><ellipse fill="#f75835" cx="0" cy="0" transform="rotate(-26.1 967.13 -128.062)" rx="2.56" ry=".47"></ellipse><path fill="#f75835" d="M 559.51 412.70 L 560.57 413.17 Q 561.15 413.42 560.60 413.74 Q 560.22 413.95 559.85 413.76 Q 559.67 413.67 559.52 413.32 Q 559.18 412.51 557.59 411.44 Q 557.42 411.33 557.62 411.33 Q 558.46 411.34 558.80 412.02 Q 559.03 412.49 559.51 412.70 Z"></path></svg></svg> </g></g> <g transform="translate(67,0)"><g fill-rule="" class="tp-name iconsvg-namesvg" transform="translate(0,0)"><g transform="scale(1)"><g><path d="M3.38-29.84L3.38 0 8.71 0 8.71-29.84C8.71-31.21 9.87-32.37 11.25-32.37L32.44-32.37 32.44-37.7 11.25-37.7C6.95-37.7 3.38-34.13 3.38-29.84ZM36.66 0L41.99 0 41.99-37.7 36.66-37.7ZM36.66-50.05L36.66-44.72 41.99-44.72 41.99-50.05ZM48.29-29.84L48.29-7.87C48.29-3.53 51.87 0 56.22 0L86.71 0 86.71-50.05 81.38-50.05 81.38-37.7 56.22-37.7C51.87-37.7 48.29-34.17 48.29-29.84ZM53.69-7.87L53.69-29.84C53.69-31.21 54.85-32.37 56.22-32.37L78.84-32.37C80.22-32.37 81.38-31.21 81.38-29.84L81.38-7.87C81.38-6.49 80.22-5.33 78.84-5.33L56.22-5.33C54.85-5.33 53.69-6.49 53.69-7.87ZM93.53 0L98.87 0 98.87-37.7 93.53-37.7ZM93.53-50.05L93.53-44.72 98.87-44.72 98.87-50.05Z" transform="translate(-3.380000114440918, 50.04999923706055)"></path></g> </g></g> <g fill-rule="" class="tp-slogan iconsvg-slogansvg" fill="#4e374f" transform="translate(5,56.04999923706055)"><rect x="0" height="1" y="3.580000400543213" width="8.850004196166992"></rect> <rect height="1" y="3.580000400543213" width="8.850004196166992" x="76.64000129699707"></rect> <g transform="translate(11.850004196166992,0)"><g transform="scale(1)"><path d="M2.08-7.07L2.08-4.14L3.40-4.14Q4.32-4.14 4.81-4.52Q5.30-4.90 5.30-5.66L5.30-5.66Q5.30-6.44 4.81-6.76Q4.32-7.07 3.40-7.07L3.40-7.07L2.08-7.07ZM6.53 0L5.40 0L3.50-3.32L2.08-3.32L2.08 0L1.08 0L1.08-7.87L3.54-7.87Q4.14-7.87 4.65-7.76Q5.16-7.64 5.53-7.38Q5.89-7.12 6.10-6.70Q6.30-6.28 6.30-5.66L6.30-5.66Q6.30-4.74 5.82-4.19Q5.34-3.64 4.54-3.43L4.54-3.43L6.53 0ZM8.05 0L8.05-7.87L9.05-7.87L9.05 0L8.05 0ZM11.21 0L11.21-7.87L13.18-7.87Q15-7.87 15.95-6.86Q16.90-5.86 16.90-3.97L16.90-3.97Q16.90-3.04 16.66-2.30Q16.42-1.56 15.95-1.05Q15.48-0.54 14.80-0.27Q14.11 0 13.22 0L13.22 0L11.21 0ZM12.20-0.82L13.10-0.82Q14.48-0.82 15.17-1.64Q15.86-2.47 15.86-3.97L15.86-3.97Q15.86-5.47 15.17-6.26Q14.48-7.06 13.10-7.06L13.10-7.06L12.20-7.06L12.20-0.82ZM18.59 0L18.59-7.87L19.58-7.87L19.58 0L18.59 0ZM25.80 0L25.80-7.03L23.42-7.03L23.42-7.87L29.18-7.87L29.18-7.03L26.81-7.03L26.81 0L25.80 0ZM33.22 0.14L33.22 0.14Q32.47 0.14 31.85-0.14Q31.24-0.43 30.79-0.97Q30.35-1.50 30.10-2.26Q29.86-3.02 29.86-3.97L29.86-3.97Q29.86-4.92 30.10-5.67Q30.35-6.42 30.79-6.94Q31.24-7.46 31.85-7.74Q32.47-8.02 33.22-8.02L33.22-8.02Q33.96-8.02 34.58-7.73Q35.20-7.45 35.65-6.93Q36.10-6.41 36.34-5.66Q36.59-4.91 36.59-3.97L36.59-3.97Q36.59-3.02 36.34-2.26Q36.10-1.50 35.65-0.97Q35.20-0.43 34.58-0.14Q33.96 0.14 33.22 0.14ZM33.22-0.73L33.22-0.73Q33.74-0.73 34.17-0.96Q34.60-1.19 34.90-1.61Q35.21-2.04 35.38-2.63Q35.54-3.23 35.54-3.97L35.54-3.97Q35.54-4.70 35.38-5.29Q35.21-5.88 34.90-6.29Q34.60-6.70 34.17-6.92Q33.74-7.14 33.22-7.14L33.22-7.14Q32.69-7.14 32.26-6.92Q31.84-6.70 31.53-6.29Q31.22-5.88 31.06-5.29Q30.89-4.70 30.89-3.97L30.89-3.97Q30.89-3.23 31.06-2.63Q31.22-2.04 31.53-1.61Q31.84-1.19 32.26-0.96Q32.69-0.73 33.22-0.73ZM41.70-7.07L41.70-4.14L43.02-4.14Q43.94-4.14 44.44-4.52Q44.93-4.90 44.93-5.66L44.93-5.66Q44.93-6.44 44.44-6.76Q43.94-7.07 43.02-7.07L43.02-7.07L41.70-7.07ZM46.15 0L45.02 0L43.13-3.32L41.70-3.32L41.70 0L40.70 0L40.70-7.87L43.16-7.87Q43.76-7.87 44.27-7.76Q44.78-7.64 45.15-7.38Q45.52-7.12 45.72-6.70Q45.92-6.28 45.92-5.66L45.92-5.66Q45.92-4.74 45.44-4.19Q44.96-3.64 44.16-3.43L44.16-3.43L46.15 0ZM47.68 0L47.68-7.87L48.67-7.87L48.67 0L47.68 0ZM50.83 0L50.83-7.87L52.80-7.87Q54.62-7.87 55.57-6.86Q56.52-5.86 56.52-3.97L56.52-3.97Q56.52-3.04 56.28-2.30Q56.04-1.56 55.57-1.05Q55.10-0.54 54.42-0.27Q53.74 0 52.85 0L52.85 0L50.83 0ZM51.83-0.82L52.73-0.82Q54.11-0.82 54.80-1.64Q55.49-2.47 55.49-3.97L55.49-3.97Q55.49-5.47 54.80-6.26Q54.11-7.06 52.73-7.06L52.73-7.06L51.83-7.06L51.83-0.82ZM58.21 0L58.21-7.87L62.75-7.87L62.75-7.03L59.21-7.03L59.21-4.56L62.20-4.56L62.20-3.71L59.21-3.71L59.21-0.85L62.87-0.85L62.87 0L58.21 0Z" transform="translate(-1.08, 8.016)"></path></g></g></g></g></g><defs v-gra="od"></defs></g></svg>