<?xml version="1.0" encoding="utf-8"?>
<svg xmlns="http://www.w3.org/2000/svg" viewBox="0 0 107 59">
  <path d="M 6.101 23.401 L 6.101 53.241 L 11.431 53.241 L 11.431 23.401 C 11.431 22.031 12.591 20.871 13.971 20.871 L 35.161 20.871 L 35.161 15.541 L 13.971 15.541 C 9.671 15.541 6.101 19.111 6.101 23.401 Z M 39.381 53.241 L 44.711 53.241 L 44.711 15.541 L 39.381 15.541 L 39.381 53.241 Z M 39.381 3.191 L 39.381 8.521 L 44.711 8.521 L 44.711 3.191 L 39.381 3.191 Z M 51.011 23.401 L 51.011 45.371 C 51.011 49.711 54.591 53.241 58.941 53.241 L 89.431 53.241 L 89.431 3.191 L 84.101 3.191 L 84.101 15.541 L 58.941 15.541 C 54.591 15.541 51.011 19.071 51.011 23.401 Z M 56.411 45.371 L 56.411 23.401 C 56.411 22.031 57.571 20.871 58.941 20.871 L 81.561 20.871 C 82.941 20.871 84.101 22.031 84.101 23.401 L 84.101 45.371 C 84.101 46.751 82.941 47.911 81.561 47.911 L 58.941 47.911 C 57.571 47.911 56.411 46.751 56.411 45.371 Z M 96.251 53.241 L 101.591 53.241 L 101.591 15.541 L 96.251 15.541 L 96.251 53.241 Z M 96.251 3.191 L 96.251 8.521 L 101.591 8.521 L 101.591 3.191 L 96.251 3.191 Z" style="fill: rgb(247, 88, 53);"/>
</svg>