<?xml version="1.0" encoding="utf-8"?>
<svg xmlns="http://www.w3.org/2000/svg" viewBox="0 0 104 75">
  <path d="M 4.372 25.123 L 4.372 54.963 L 9.702 54.963 L 9.702 25.123 C 9.702 23.753 10.862 22.593 12.242 22.593 L 33.432 22.593 L 33.432 17.263 L 12.242 17.263 C 7.942 17.263 4.372 20.833 4.372 25.123 Z M 37.652 54.963 L 42.982 54.963 L 42.982 17.263 L 37.652 17.263 L 37.652 54.963 Z M 37.652 4.913 L 37.652 10.243 L 42.982 10.243 L 42.982 4.913 L 37.652 4.913 Z M 49.282 25.123 L 49.282 47.093 C 49.282 51.433 52.862 54.963 57.212 54.963 L 87.702 54.963 L 87.702 4.913 L 82.372 4.913 L 82.372 17.263 L 57.212 17.263 C 52.862 17.263 49.282 20.793 49.282 25.123 Z M 54.682 47.093 L 54.682 25.123 C 54.682 23.753 55.842 22.593 57.212 22.593 L 79.832 22.593 C 81.212 22.593 82.372 23.753 82.372 25.123 L 82.372 47.093 C 82.372 48.473 81.212 49.633 79.832 49.633 L 57.212 49.633 C 55.842 49.633 54.682 48.473 54.682 47.093 Z M 94.522 54.963 L 99.862 54.963 L 99.862 17.263 L 94.522 17.263 L 94.522 54.963 Z M 94.522 4.913 L 94.522 10.243 L 99.862 10.243 L 99.862 4.913 L 94.522 4.913 Z" style="fill: rgb(247, 88, 53);"/>
  <rect x="9.372" height="1" y="64.543" width="8.85"/>
  <rect height="1" y="64.543" width="8.85" x="86.012"/>
  <path d="M 22.222 61.909 L 22.222 64.839 L 23.542 64.839 C 24.156 64.839 24.626 64.712 24.952 64.459 C 25.279 64.206 25.442 63.826 25.442 63.319 C 25.442 62.799 25.279 62.432 24.952 62.219 C 24.626 62.012 24.156 61.909 23.542 61.909 L 22.222 61.909 Z M 26.672 68.979 L 25.542 68.979 L 23.642 65.659 L 22.222 65.659 L 22.222 68.979 L 21.222 68.979 L 21.222 61.109 L 23.682 61.109 C 24.082 61.109 24.452 61.146 24.792 61.219 C 25.132 61.299 25.426 61.426 25.672 61.599 C 25.912 61.772 26.102 61.999 26.242 62.279 C 26.376 62.559 26.442 62.906 26.442 63.319 C 26.442 63.932 26.282 64.422 25.962 64.789 C 25.642 65.156 25.216 65.409 24.682 65.549 L 26.672 68.979 Z M 28.192 68.979 L 28.192 61.109 L 29.192 61.109 L 29.192 68.979 L 28.192 68.979 Z M 31.352 68.979 L 31.352 61.109 L 33.322 61.109 C 34.536 61.109 35.459 61.446 36.092 62.119 C 36.726 62.786 37.042 63.749 37.042 65.009 C 37.042 65.629 36.962 66.186 36.802 66.679 C 36.642 67.172 36.406 67.589 36.092 67.929 C 35.779 68.269 35.396 68.529 34.942 68.709 C 34.482 68.889 33.956 68.979 33.362 68.979 L 31.352 68.979 Z M 32.342 68.159 L 33.242 68.159 C 34.162 68.159 34.852 67.886 35.312 67.339 C 35.772 66.786 36.002 66.009 36.002 65.009 C 36.002 64.009 35.772 63.246 35.312 62.719 C 34.852 62.186 34.162 61.919 33.242 61.919 L 32.342 61.919 L 32.342 68.159 Z M 38.732 68.979 L 38.732 61.109 L 39.722 61.109 L 39.722 68.979 L 38.732 68.979 Z M 45.942 68.979 L 45.942 61.949 L 43.562 61.949 L 43.562 61.109 L 49.322 61.109 L 49.322 61.949 L 46.952 61.949 L 46.952 68.979 L 45.942 68.979 Z M 53.362 69.119 C 52.862 69.119 52.406 69.026 51.992 68.839 C 51.586 68.646 51.232 68.369 50.932 68.009 C 50.639 67.656 50.409 67.226 50.242 66.719 C 50.082 66.212 50.002 65.642 50.002 65.009 C 50.002 64.376 50.082 63.809 50.242 63.309 C 50.409 62.809 50.639 62.386 50.932 62.039 C 51.232 61.692 51.586 61.426 51.992 61.239 C 52.406 61.052 52.862 60.959 53.362 60.959 C 53.856 60.959 54.309 61.056 54.722 61.249 C 55.136 61.436 55.492 61.702 55.792 62.049 C 56.092 62.396 56.322 62.819 56.482 63.319 C 56.649 63.819 56.732 64.382 56.732 65.009 C 56.732 65.642 56.649 66.212 56.482 66.719 C 56.322 67.226 56.092 67.656 55.792 68.009 C 55.492 68.369 55.136 68.646 54.722 68.839 C 54.309 69.026 53.856 69.119 53.362 69.119 Z M 53.362 68.249 C 53.709 68.249 54.026 68.172 54.312 68.019 C 54.599 67.866 54.842 67.649 55.042 67.369 C 55.249 67.082 55.409 66.742 55.522 66.349 C 55.629 65.949 55.682 65.502 55.682 65.009 C 55.682 64.522 55.629 64.082 55.522 63.689 C 55.409 63.296 55.249 62.962 55.042 62.689 C 54.842 62.416 54.599 62.206 54.312 62.059 C 54.026 61.912 53.709 61.839 53.362 61.839 C 53.009 61.839 52.689 61.912 52.402 62.059 C 52.122 62.206 51.879 62.416 51.672 62.689 C 51.466 62.962 51.309 63.296 51.202 63.689 C 51.089 64.082 51.032 64.522 51.032 65.009 C 51.032 65.502 51.089 65.949 51.202 66.349 C 51.309 66.742 51.466 67.082 51.672 67.369 C 51.879 67.649 52.122 67.866 52.402 68.019 C 52.689 68.172 53.009 68.249 53.362 68.249 Z M 61.842 61.909 L 61.842 64.839 L 63.162 64.839 C 63.776 64.839 64.249 64.712 64.582 64.459 C 64.909 64.206 65.072 63.826 65.072 63.319 C 65.072 62.799 64.909 62.432 64.582 62.219 C 64.249 62.012 63.776 61.909 63.162 61.909 L 61.842 61.909 Z M 66.292 68.979 L 65.162 68.979 L 63.272 65.659 L 61.842 65.659 L 61.842 68.979 L 60.842 68.979 L 60.842 61.109 L 63.302 61.109 C 63.702 61.109 64.072 61.146 64.412 61.219 C 64.752 61.299 65.046 61.426 65.292 61.599 C 65.539 61.772 65.729 61.999 65.862 62.279 C 65.996 62.559 66.062 62.906 66.062 63.319 C 66.062 63.932 65.902 64.422 65.582 64.789 C 65.262 65.156 64.836 65.409 64.302 65.549 L 66.292 68.979 Z M 67.822 68.979 L 67.822 61.109 L 68.812 61.109 L 68.812 68.979 L 67.822 68.979 Z M 70.972 68.979 L 70.972 61.109 L 72.942 61.109 C 74.156 61.109 75.079 61.446 75.712 62.119 C 76.346 62.786 76.662 63.749 76.662 65.009 C 76.662 65.629 76.582 66.186 76.422 66.679 C 76.262 67.172 76.026 67.589 75.712 67.929 C 75.399 68.269 75.016 68.529 74.562 68.709 C 74.109 68.889 73.586 68.979 72.992 68.979 L 70.972 68.979 Z M 71.972 68.159 L 72.872 68.159 C 73.792 68.159 74.482 67.886 74.942 67.339 C 75.402 66.786 75.632 66.009 75.632 65.009 C 75.632 64.009 75.402 63.246 74.942 62.719 C 74.482 62.186 73.792 61.919 72.872 61.919 L 71.972 61.919 L 71.972 68.159 Z M 78.352 68.979 L 78.352 61.109 L 82.892 61.109 L 82.892 61.949 L 79.352 61.949 L 79.352 64.419 L 82.342 64.419 L 82.342 65.269 L 79.352 65.269 L 79.352 68.129 L 83.012 68.129 L 83.012 68.979 L 78.352 68.979 Z"/>
</svg>